<svg xmlns="http://www.w3.org/2000/svg" enable-background="new 0 0 3000 3000" viewBox="0 0 3000 3000" id="shopping-day"><path fill="#DCF4E6" d="M2547.762,2558.781H388.587c22.788-142.608,104.522-261.949,215.385-323.829
			c41.03-23.15,86.199-38.347,133.691-43.914c29.351-113.803,80.227-217.093,147.246-303.859
			c129.023-166.906,318.074-272.14,528.731-272.14c290.028,0,538.964,199.598,647.075,484.815
			c13.657-1.59,27.455-2.798,41.419-2.798c204.275,0,369.703,188.613,369.703,421.109c0,2.356,0,4.33-0.164,6.362
			C2499.027,2531.065,2524.648,2542.875,2547.762,2558.781z"></path><path fill="#FFF" d="M1036.974,2067.661
			c45.083,52.421,460.418-368.808,295.056-324.551C1166.669,1787.367,978.61,1999.801,1036.974,2067.661z" enable-background="new" opacity=".5"></path><path fill="#93E5B6" d="M2054.462 2558.781h680.548c-17.962-32.416-56.131-22.365-97.221-23.23-7.68-24.233-28.962-23.726-74.808-16.263 58.082-52.967 39.959-105.005-61.333-71.086 115.697-157.508-63.657-193.505-90.142-196.656-33.373-3.98-186.788 20.552-105.474 184.571-98.506-40.883-125.455 7.441-51.112 92.468C2183.898 2531.914 2098.8 2547.514 2054.462 2558.781zM264.99 2558.781h1188.66c-77.108-17.911-236.875-39.121-308.748-40.633-13.433-42.388-50.659-41.499-130.85-28.445 101.594-92.647 69.897-183.669-107.28-124.342 202.371-275.505-111.345-338.47-157.673-343.979-58.375-6.962-326.719 35.949-184.489 322.843-172.301-71.512-219.439 13.015-89.402 161.74C350.98 2511.787 306.902 2526.365 264.99 2558.781z"></path><path fill="#DCF4E6" fill-rule="evenodd" d="M2556.181 1050.191c-6.273 0-12.283 1.13-17.84 3.195-2.508-2.767-6.135-4.501-10.165-4.501-1.876 0-3.666.37-5.297 1.055-.903-11.824-10.777-21.133-22.825-21.133-5.235 0-10.058 1.756-13.914 4.713-2.466-3.396-6.466-5.603-10.985-5.603-.756 0-1.493.062-2.218.181 1.527-3.571 2.377-7.5 2.377-11.625 0-16.313-13.231-29.541-29.547-29.541-3.041 0-5.973.459-8.729 1.312-2.146-4.565-6.784-7.73-12.157-7.73l-.388.006c.062-1.065.098-2.135.098-3.219 0-29.324-23.773-53.091-53.097-53.091-29.327 0-53.097 23.766-53.097 53.091 0 .413.006.819.015 1.23-2.566-.649-5.244-.995-8.013-.995-5.496 0-10.664 1.362-15.208 3.764-7.739-10.561-20.23-17.418-34.324-17.418-23.492 0-42.534 19.042-42.534 42.534 0 4.617.744 9.064 2.096 13.23-.423-.028-.848-.04-1.279-.04-11.573 0-20.948 9.376-20.948 20.943 0 1.362.134 2.693.38 3.972-.145-.002-.288-.006-.44-.006-6.533 0-11.86 5.192-12.072 11.677-1.811-.343-3.684-.529-5.6-.529-7.553 0-14.62 2.628-19.707 7.439-13.608 12.868 1.251 16.213 15.564 16.213h18.667 14.654 300.319 23.443 38.513c14.921 0 36.23 2.445 21.43-13.159C2584.009 1056.321 2570.811 1050.191 2556.181 1050.191zM502.369 615.318c10.97 0 21.481 1.975 31.199 5.587 4.389-4.838 10.729-7.872 17.778-7.872 3.281 0 6.412.648 9.263 1.846 1.579-20.679 18.847-36.957 39.916-36.957 9.156 0 17.589 3.072 24.332 8.242 4.313-5.94 11.308-9.798 19.212-9.798 1.323 0 2.612.107 3.88.315-2.671-6.245-4.158-13.116-4.158-20.33 0-28.528 23.139-51.663 51.673-51.663 5.32 0 10.446.804 15.267 2.297 3.751-7.985 11.864-13.518 21.261-13.518l.679.01c-.107-1.862-.172-3.735-.172-5.629 0-51.283 41.576-92.847 92.859-92.847 51.287 0 92.859 41.564 92.859 92.847 0 .723-.011 1.434-.027 2.152 4.49-1.136 9.173-1.74 14.015-1.74 9.611 0 18.65 2.382 26.597 6.583 13.534-18.467 35.379-30.461 60.027-30.461 41.083 0 74.385 33.302 74.385 74.385 0 8.076-1.301 15.852-3.666 23.135.739-.049 1.482-.069 2.236-.069 20.239 0 36.635 16.397 36.635 36.625 0 2.381-.234 4.708-.663 6.946.251-.006.503-.011.771-.011 11.426 0 20.742 9.081 21.111 20.421 3.169-.6 6.443-.926 9.792-.926 13.208 0 25.569 4.597 34.464 13.009 23.798 22.504-2.189 28.352-27.217 28.352h-32.644-25.628H583.199h-40.998-67.353c-26.094 0-63.361 4.276-37.476-23.011C453.704 626.036 476.785 615.318 502.369 615.318z" clip-rule="evenodd"></path><path fill="#DCF4E6" d="M1171.836 1440.817c-42.947-43.974-226.154-34.102-266.401-22.236-40.248 11.866-116.027-1.297-138.199-49.209 0 0 16.733 77.379 142.081 61.487C1107.702 1405.707 1171.836 1440.817 1171.836 1440.817zM1790.087 1524.243c79.602 84.06 331.03 58.247 386.137 4.853 0 0-16.928 58.624-206.653 62.092C1811.137 1594.082 1790.087 1524.243 1790.087 1524.243z"></path><g><linearGradient id="a" x1="1619.296" x2="1619.296" y1="1767.541" y2="1940.993" gradientTransform="matrix(1 0 0 -1 0 2997.89)" gradientUnits="userSpaceOnUse"><stop offset=".037" stop-color="#d4c95e"></stop><stop offset="1" stop-color="#ff9444"></stop></linearGradient><polygon fill="url(#a)" points="1619.297 1101.772 1465.175 1146.757 1619.297 1251.779 1773.417 1146.757"></polygon><polygon fill="#009444" points="1619.297 925.819 1465.175 1030.862 1619.297 1135.863 1773.417 1030.862"></polygon><polygon fill="#009444" points="1619.297 1135.93 1619.297 1251.846 1465.241 1150.179 1465.241 1030.841"></polygon><polygon fill="#097C3A" points="1773.417 1030.841 1773.417 1150.179 1619.297 1251.846 1619.297 1135.93"></polygon><polygon fill="#CDEEFF" points="1519.711 1077.838 1678.753 965.434 1713.918 989.391 1559.303 1094.995 1559.303 1212.118 1519.711 1186.126" enable-background="new" opacity=".25"></polygon><polygon fill="#CDEEFF" points="1723.938 1074.751 1559.794 966.888 1524.676 990.867 1684.39 1091.908 1684.39 1209.076 1723.938 1183.061" enable-background="new" opacity=".25"></polygon><path fill="#11405C" d="M1863.699,744.093c-1.723-1.522-232.146,264.401-232.146,264.401s91.847-287.217,89.7-287.955
			c-2.102-0.672-101.957,299.295-101.957,299.295s-99.833-299.966-101.958-299.295c-2.17,0.739,89.633,287.955,89.633,287.955
			s-230.378-265.921-232.078-264.401c-1.723,1.432-1.925,3.982-0.403,5.727l239.659,279.612c0.761,0.895,1.946,1.432,3.087,1.432
			c0.672,0,1.389-0.201,1.969-0.536c0.091-0.023,0.091-0.023,0.091-0.023s0.022,0,0.022,0.023c0.65,0.335,1.342,0.536,2.036,0.536
			c1.163,0,2.281-0.536,3.087-1.432l239.683-279.612C1865.622,748.075,1865.398,745.525,1863.699,744.093z"></path><path fill="#549BEC" d="M1867.948,751.431c-31.205-8.948-66.212-16.263-103.948-21.609c-28.789-4.048-59.166-6.979-90.728-8.523
			c-18.275-0.962-37.021-1.432-56.035-1.432c-19.012,0-37.714,0.47-56.033,1.432c-31.561,1.543-61.939,4.474-90.728,8.523
			c-37.735,5.346-72.743,12.661-103.949,21.609c10.96-128.868,119.048-229.976,250.71-229.976
			C1748.902,521.456,1856.99,622.564,1867.948,751.431z"></path><path fill="#91C4F6" d="M1617.237 521.456c-27.58 0-50.599 85.695-56.033 199.844-31.561 1.543-61.939 4.474-90.728 8.523C1482.622 611.49 1543.689 521.456 1617.237 521.456zM1764 729.822c-28.789-4.048-59.166-6.979-90.728-8.523-5.436-114.148-28.453-199.844-56.035-199.844C1690.786 521.456 1751.854 611.49 1764 729.822z"></path><g><path fill="#F2CD33" d="M1586.574,1096.202l-55.81-56.28l-31.361,16.062l-107.371,106.432l7.516,7.649l55.766,56.236l7.539,7.604
				l107.348-106.476L1586.574,1096.202z M1540.808,1085.779c-3.289-3.335-3.222-8.681,0.067-11.924
				c3.311-3.333,8.612-3.333,11.946,0c3.288,3.335,3.288,8.702-0.046,11.968C1549.464,1089.089,1544.117,1089.045,1540.808,1085.779
				z"></path><path fill="#DBA12C" d="M1463.634 1176.462c.694-.67 1.231-1.296 1.566-1.879.335-.582.514-1.028.603-1.565.067-.448 0-.896-.157-1.209-.134-.403-.403-.784-.716-1.073-.739-.717-1.633-.94-2.774-.784-1.141.201-2.752.805-4.944 1.902-.962.493-1.946.896-3.019 1.299-1.007.357-2.036.626-3.087.672-1.03.044-2.08-.091-3.109-.403-1.052-.36-2.125-1.053-3.087-2.013-1.007-.986-1.723-2.126-2.148-3.266-.447-1.162-.582-2.371-.447-3.668.112-1.23.515-2.438 1.209-3.78.649-1.229 1.61-2.551 2.818-3.691 1.476-1.476 2.862-2.594 4.273-3.355 1.365-.759 2.549-1.252 3.645-1.565l2.461 5.189c-.917.335-1.879.739-2.862 1.209-1.006.536-1.969 1.254-3.02 2.328-1.163 1.162-1.879 2.168-2.036 2.974-.201.805.067 1.589.672 2.281.426.336.872.604 1.297.694.514.044.984.044 1.543-.089.537-.067 1.186-.336 1.789-.582.626-.224 1.276-.559 2.013-.895 1.543-.738 2.908-1.296 4.115-1.698 1.32-.448 2.461-.672 3.557-.672 1.074 0 2.148.178 3.132.692.962.47 2.035 1.186 3.02 2.215 2.035 2.013 2.885 4.341 2.572 6.845-.29 2.551-1.833 5.167-4.72 8.053-.984.986-1.879 1.745-2.752 2.416-.85.603-1.678 1.163-2.461 1.565-.761.493-1.477.783-2.08 1.03-.603.222-1.14.423-1.565.537l-2.483-5.214c.962-.29 2.079-.783 3.288-1.455C1461.017 1178.834 1462.292 1177.804 1463.634 1176.462zM1494.168 1153.423c-1.052-.516-2.013-1.03-3.132-1.523-1.073-.536-2.102-1.028-3.177-1.543l-8.455 8.455c.537 1.053 1.029 2.126 1.543 3.154.537 1.073 1.029 2.148 1.543 3.087l-5.033 5.033c-1.521-3.108-2.885-6.04-4.16-8.791-1.209-2.639-2.349-5.234-3.422-7.695-1.05-2.416-1.99-4.787-2.931-7.022-.872-2.26-1.7-4.52-2.483-6.71l4.675-4.609c2.169.76 4.384 1.657 6.665 2.483 2.282.872 4.63 1.857 7.046 2.932 2.461 1.028 5.011 2.168 7.762 3.398 2.685 1.299 5.57 2.662 8.724 4.138L1494.168 1153.423zM1471.575 1142.573c.18.403.47.962.806 1.745.313.784.738 1.633 1.141 2.572.469.94.917 2.104 1.453 3.222.537 1.208 1.073 2.416 1.7 3.668l6.173-6.129c-1.275-.65-2.505-1.186-3.645-1.723-1.186-.559-2.259-1.006-3.221-1.476-1.007-.403-1.879-.806-2.617-1.096C1472.627 1142.999 1472.045 1142.707 1471.575 1142.573zM1512.42 1126.849l4.183 4.181-14.428 14.384-21.676-21.608 4.898-4.831 17.426 17.426L1512.42 1126.849zM1519.691 1127.876l-21.63-21.563 14.652-14.608 4.071 4.094-9.73 9.709 4.228 4.249 8.657-8.657 3.96 4.027-8.657 8.612 5.19 5.19 10.513-10.425 4.094 4.071L1519.691 1127.876z"></path></g><path fill="#CDEEFF" d="M1551.051,1072.002c0.959-0.99,33.962-38.225,64.819-46.912c2.057-0.579,6.471,5.575,5.486,5.773
		c-27.957,5.614-67.124,42.288-68.03,43.839C1551.335,1078.114,1546.827,1076.36,1551.051,1072.002z"></path></g><g><polygon fill="#91C4F6" points="2125.484 2363.866 1860.831 2316.685 1911.317 1935.117 2142.719 1955.265"></polygon><polygon fill="#549BEC" points="2142.719 1955.265 2153.227 1964.264 2160.923 1956.85 2181.759 2339.225 2161.282 2343.905 2125.484 2363.866"></polygon><path fill="#549BEC" d="M1970.559 1995.478c0 5.526-3.199 10.006-7.147 10.006-3.948 0-7.148-4.48-7.148-10.006 0-5.527 3.199-10.006 7.148-10.006C1967.359 1985.472 1970.559 1989.952 1970.559 1995.478zM2060.225 1999.81c0 5.359-3.104 9.703-6.931 9.703-3.827 0-6.93-4.343-6.93-9.703 0-5.358 3.103-9.703 6.93-9.703C2057.121 1990.108 2060.225 1994.451 2060.225 1999.81z"></path><path fill="#CDEEFF" d="M1959.457,1995.234c-2.655,15.596-5.311,31.192-7.966,46.787c-2.281,13.397-5.23,26.918-5.721,40.537
				c-0.883,24.487,10.981,45.162,33.641,55.192c11.495,5.088,24.208,6.891,36.706,6.748c9.361-0.107,20.377-0.917,26.311-9.231
				c6.727-9.424,0.014-18.903-6.606-26.2c-7.745-8.536-25.898-15.662-25.195-28.877c0.483-9.05,7.503-15.87,13.306-22.047
				c4.774-5.082,9.298-10.363,13.45-15.968c7.479-10.096,19.543-25.302,18.052-38.692c-0.386-3.46-5.858-3.499-5.469,0
				c1.267,11.366-9.429,24.998-15.805,33.874c-6.7,9.328-15.306,16.921-22.179,26.039c-5.172,6.862-8.76,15.869-5.715,24.412
				c3.047,8.545,11.743,12.806,18.348,18.177c4.647,3.779,9.145,8.263,12.396,13.313c5.436,8.44,1.011,15.781-7.946,18.429
				c-11.204,3.312-25.895,1.507-36.963-1.359c-25.293-6.55-41.493-26.136-40.912-52.535c0.308-14.024,3.468-27.991,5.815-41.776
				c2.574-15.122,5.149-30.246,7.723-45.369C1965.316,1993.245,1960.047,1991.766,1959.457,1995.234L1959.457,1995.234z"></path><g><polygon fill="#FFC439" points="1594.19 2135.287 1783.287 2095.114 1972.384 2122.859 1786.617 2186.918"></polygon><polygon fill="#DBA12C" points="1791.757 2379.462 1975.798 2334.523 1972.384 2122.859 1785.966 2162.525"></polygon><polygon fill="#CDEEFF" points="1678.804 2117.312 1737.969 2105.091 1905.552 2135.982 1907.586 2178.512 1884.298 2185.709 1879.979 2178.776 1877.718 2188.605 1859.936 2194.753 1859.343 2149.205" enable-background="new" opacity=".5"></polygon><polygon fill="#CDEEFF" points="1880.145 2357.956 1880.038 2324.935 1891.455 2322.718 1893.968 2326.752 1895.284 2321.107 1925.146 2312.633 1928.651 2346.082" enable-background="new" opacity=".5"></polygon><polygon fill="#FFC439" points="1594.19 2135.287 1600.268 2352.709 1791.757 2379.462 1785.966 2162.525"></polygon><path fill="#DBA12C" d="M1594.19,2135.287l191.775,27.238c0,0-59.832,7.039-99.568,0
				C1646.662,2155.485,1594.19,2135.287,1594.19,2135.287z"></path><g><polygon fill="#FFC439" points="1859.343 2186.264 2008.962 2154.477 2158.581 2176.429 2011.597 2227.116"></polygon><polygon fill="#DBA12C" points="2015.664 2379.462 2161.282 2343.905 2158.581 2176.429 2011.082 2207.815"></polygon><polygon fill="#CDEEFF" points="1926.292 2172.041 1973.106 2162.372 2105.702 2186.813 2107.311 2220.464 2088.884 2226.158 2085.467 2220.673 2083.679 2228.451 2069.61 2233.315 2069.14 2197.276" enable-background="new" opacity=".5"></polygon><polygon fill="#CDEEFF" points="2085.599 2362.445 2085.515 2336.319 2094.548 2334.565 2096.538 2337.756 2097.577 2333.289 2121.207 2326.586 2123.977 2353.051" enable-background="new" opacity=".5"></polygon><polygon fill="#FFC439" points="1859.343 2186.264 1864.153 2358.295 2015.664 2379.462 2011.082 2207.815"></polygon><path fill="#DBA12C" d="M1859.343,2186.264l151.738,21.551c0,0-47.34,5.57-78.781,0
				C1900.861,2202.245,1859.343,2186.264,1859.343,2186.264z"></path></g></g><g><path fill="#2F627C" d="M2252.111,2070v-18.342h-84.756l24.44-143.143h-30.822l-20.365,143.143h-137.362l9.506-143.143h-31.019
			l-5.43,143.143H1839.04l-5.429-143.143h-31.017l9.505,143.143h-137.361l-20.363-143.143h-30.825l24.439,143.143h-84.752V2070
			h87.883l20.776,121.686h-98.757v18.342h101.888l23.171,135.719h18.374l-19.306-135.719h125.35l9.012,135.719h18.568
			l-5.148-135.719h125.251l-5.148,135.719h18.568l9.013-135.719h125.349l-19.31,135.72h18.373l23.171-135.719h101.893v-18.342
			h-98.762L2164.222,2070L2252.111,2070L2252.111,2070z M1694.657,2191.686L1677.346,2070h135.971l8.08,121.686H1694.657
			L1694.657,2191.686z M1844.351,2191.686L1839.735,2070h135.873l-4.615,121.686H1844.351L1844.351,2191.686z M2120.689,2191.686
			h-126.741l8.081-121.686H2138L2120.689,2191.686z"></path><path fill="#11405C" d="M1508.929,1927.624l75.895,411.844c3.177,17.236,18.204,29.749,35.73,29.749h574.235
			c17.526,0,32.554-12.513,35.729-29.749l75.895-411.844c4.115-22.328-13.027-42.917-35.73-42.917H1544.66
			C1521.958,1884.708,1504.815,1905.297,1508.929,1927.624z M1587.561,1920.422h640.223c22.702,0,39.844,20.589,35.731,42.915
			l-62.728,340.416c-3.177,17.235-18.204,29.748-35.73,29.748h-514.769c-17.526,0-32.555-12.512-35.731-29.748l-62.726-340.416
			C1547.716,1941.011,1564.859,1920.422,1587.561,1920.422z"></path><path fill="#2F627C" d="M2222.219,2367.059c0,0-424.994,0.047-568.413,0.066c-27.188,0.003-50.648-19.026-56.274-45.625
			l-107.718-509.291l-0.857-3.644c-4.472-18.992-21.379-32.443-40.891-32.531l-146.734-0.656l-1.786,35.983l143.956,0.711
			c5.484,0.029,10.232,3.811,11.485,9.147l125.59,549.961c-40.86,12.269-70.351,50.812-68.752,96.026
			c1.854,52.398,46.606,93.128,99.039,93.128h396.568c0.019,0,0.035-0.006,0.053-0.006h37.96c11.547,0,20.838-9.663,20.227-21.344
			c-0.554-10.589-10.77-19.166-21.371-19.166h-36.665c-0.069-0.001-0.134-0.019-0.205-0.019h-397.157
			c-30.897,0-57.4-24.173-57.966-55.064c-0.576-31.473,24.763-57.165,56.104-57.165h612.662c10.603,0,20.817-8.578,21.372-19.168
			C2243.054,2376.72,2233.765,2367.059,2222.219,2367.059z"></path><path fill="#11405C" d="M2007.815,2502.618c-11.675-15.875-30.488-26.121-51.737-26.121c-21.249,0-40.062,10.247-51.737,26.121
				c-7.895,10.667-12.514,23.852-12.514,38.132c0,35.527,28.724,64.25,64.251,64.25c35.528,0,64.335-28.723,64.335-64.25
				C2020.413,2526.47,2015.71,2513.286,2007.815,2502.618z M1956.078,2578.963c-21.08,0-38.131-17.135-38.131-38.213
				c0-20.997,17.049-38.132,38.131-38.132c21.08,0,38.215,17.135,38.215,38.132
				C1994.293,2561.828,1977.16,2578.963,1956.078,2578.963z"></path><path fill="#FFF" d="M1994.293,2540.75c0,21.078-17.135,38.213-38.215,38.213c-21.08,0-38.131-17.135-38.131-38.213
				c0-20.997,17.049-38.132,38.131-38.132C1977.16,2502.618,1994.293,2519.753,1994.293,2540.75z"></path><path fill="#11405C" d="M1970.479,2540.745c0,7.959-6.443,14.429-14.403,14.429c-7.935,0-14.354-6.47-14.354-14.429
				c0-7.909,6.42-14.38,14.354-14.38C1964.036,2526.365,1970.479,2532.836,1970.479,2540.745z"></path><g><path fill="#11405C" d="M1772.396,2502.618c-11.674-15.875-30.487-26.121-51.736-26.121c-21.249,0-40.063,10.247-51.737,26.121
				c-7.895,10.667-12.514,23.852-12.514,38.132c0,35.527,28.724,64.25,64.251,64.25s64.334-28.723,64.334-64.25
				C1784.994,2526.47,1780.291,2513.286,1772.396,2502.618z M1720.659,2578.963c-21.082,0-38.131-17.135-38.131-38.213
				c0-20.997,17.049-38.132,38.131-38.132c21.08,0,38.131,17.135,38.131,38.132
				C1758.79,2561.828,1741.74,2578.963,1720.659,2578.963z"></path><path fill="#FFF" d="M1758.79,2540.75c0,21.078-17.049,38.213-38.131,38.213s-38.131-17.135-38.131-38.213
				c0-20.997,17.049-38.132,38.131-38.132S1758.79,2519.753,1758.79,2540.75z"></path><path fill="#11405C" d="M1735.049,2540.745c0,7.959-6.444,14.429-14.404,14.429c-7.934,0-14.354-6.47-14.354-14.429
				c0-7.909,6.419-14.38,14.354-14.38C1728.605,2526.365,1735.049,2532.836,1735.049,2540.745z"></path></g><path fill="#11405C" d="M1236.846,1808.596c-0.286,6.894,5.165,12.459,11.91,12.27l147.902-4.149l20.749-0.66
			c4.591-0.147,8.003-5.637,7.132-11.397l-3.706-24.492c-0.67-4.424-3.672-7.707-7.198-7.827l0,0l-163.466-6.741
			c-6.388-0.263-11.736,4.695-12.007,11.222L1236.846,1808.596z"></path></g></g><g><path fill="#FFC439" d="M1985.176,1261.845l-89.896,25.694l-1.272,41.542l48.998,171.554l12.186-3.434l89.861-25.697
				l12.157-3.482l-49.045-171.526L1985.176,1261.845z M1948.341,1303.218c-5.272,1.509-10.752-1.589-12.28-6.837
				c-1.498-5.309,1.525-10.844,6.853-12.365c5.247-1.494,10.825,1.544,12.357,6.856
				C1956.734,1296.18,1953.667,1301.697,1948.341,1303.218z"></path><path fill="#DBA12C" d="M1955.73,1352.033l-2.021-7.043l12.2-3.464l2.069,7.014c11.212-0.805,18.982,5.774,22.629,18.681
					l0.878,2.959l-14.161,4.064l-1.151-3.929c-1.923-6.818-5.39-8.638-10.115-7.252c-4.753,1.336-6.73,4.702-4.816,11.504
					c5.593,19.538,35.12,12.14,42.861,39.386c3.652,12.86,0.45,22.774-9.517,27.951l2,6.948l-12.241,3.509l-2.006-6.964
					c-11.357,0.89-19.121-5.844-22.802-18.754l-1.82-6.532l14.073-3.99l2.123,7.44c1.971,6.79,5.654,8.419,10.379,7.034
					c4.776-1.352,7.085-4.648,5.137-11.453c-5.586-19.586-35.104-12.171-42.831-39.339
					C1942.923,1367.022,1945.907,1357.345,1955.73,1352.033z"></path><path fill="#F2CD33" d="M600.953,1024.059l-42.505,218.85c0,0,137.667,69.648,142.682,64.608
			c5.017-5.04,91.92-211.988,91.92-211.988L600.953,1024.059z"></path><path fill="#DBA12C" d="M671.413,1120.618c9.572,4.16,13.279,12.717,6.448,22.925c-6.731,10.251-17.432,12.549-27.003,8.389
				c-9.673-4.203-13.38-12.762-6.649-23.013C651.039,1118.712,661.841,1116.459,671.413,1120.618z M703.116,1135.593l16.625,7.224
				l-82.209,48.601l-16.625-7.224L703.116,1135.593z M656.199,1134.13c-2.82,4.285-2.329,7.013,0.694,8.327
				c3.023,1.313,6.259,0.205,9.079-4.08c2.82-4.285,2.228-7.057-0.794-8.37C662.154,1128.693,659.018,1129.846,656.199,1134.13z
				 M689.991,1175.167c9.572,4.16,13.178,12.674,6.347,22.882c-6.731,10.251-17.432,12.549-27.004,8.389
				c-9.572-4.16-13.279-12.717-6.447-22.925C669.618,1173.262,680.419,1171.007,689.991,1175.167z M674.676,1188.636
				c-2.82,4.285-2.329,7.013,0.794,8.37c2.923,1.27,6.158,0.162,8.979-4.122c2.82-4.285,2.228-7.057-0.693-8.327
				C680.733,1183.242,677.496,1184.35,674.676,1188.636z"></path><g><path fill="#F2CD33" d="M2048.401,528.236l63.608,153.954c0,0,114.511-13.256,115.564-18.464
			c1.053-5.208-29.97-170.021-29.97-170.021L2048.401,528.236z"></path><path fill="#DBA12C" d="M2132.091,559.43c7.681-1.348,13.515,2.462,13.459,11.64c0.024,9.163-5.702,15.002-13.382,16.349
				c-7.762,1.361-13.597-2.448-13.621-11.611C2118.603,566.63,2124.409,560.777,2132.091,559.43z M2158.023,555.713l13.34-2.341
				l-31.246,64.152l-13.34,2.341L2158.023,555.713z M2128.167,574.12c0.006,3.832,1.435,5.331,3.862,4.905
				c2.425-0.426,3.987-2.449,3.981-6.282c-0.006-3.832-1.516-5.317-3.942-4.892C2129.642,568.277,2128.162,570.286,2128.167,574.12z
				 M2166.133,585.791c7.681-1.346,13.436,2.477,13.379,11.653c0.024,9.163-5.702,15.002-13.382,16.349s-13.515-2.462-13.459-11.64
				C2152.645,592.992,2158.453,587.139,2166.133,585.791z M2162.129,600.495c0.006,3.833,1.435,5.332,3.942,4.892
				c2.344-0.411,3.907-2.436,3.9-6.268c-0.006-3.833-1.516-5.317-3.861-4.905C2163.685,594.639,2162.123,596.663,2162.129,600.495z"></path></g></g><g><path fill="#D7A28E" d="M1240.094,1340.13l46.884,131.088l194.991-79.49l22.453,45.007c0,0-182.92,136.132-237.4,121.023
		c-37.425-10.379-78.835-133.861-78.835-133.861L1240.094,1340.13z"></path><path fill="#C18C7C" d="M1270.552 1425.29l9.984 27.917-26.823 12.333c0 0-28.623 33.735-27.09 47.09l-26.072-55.738C1200.551 1456.891 1250.069 1426.825 1270.552 1425.29zM1287.107 1474.667c0 0 7.708 33.33 0 36.543C1279.399 1514.423 1282.645 1479.535 1287.107 1474.667z" enable-background="new"></path><path fill="#D7A28E" d="M1522.421,1337.391c3.727,0.986,4.894,4.262,3.44,8.605c-3.095,9.25-7.106,18.134-10.776,27.509
			c17.576-7.721,36.659-15.664,54.235-23.385c1.441,2.036,0.9,4.661-0.19,6.401c-1.09,1.74-2.729,3.052-4.357,4.303
			c-6.379,4.901-13.067,9.4-20.013,13.459c12.907-3.787,22.082-6.811,34.357-9.868c0.781,1.782,0.573,4.656-0.673,6.151
			c-1.245,1.496-4.396,3.257-6.097,4.203c-7.728,4.296-14.047,7.809-21.774,12.104c9.128-2.02,18.887-3.162,28.015-5.183
			c0.907,1.203,0.58,3.861-0.247,5.12c-0.828,1.259-2.087,2.192-3.416,2.9c-6.751,3.599-16.055,7.395-21.564,10.053
			c6.256-0.747,12.818-0.869,19.073-1.616c1.48,5.745-6.159,5.982-10.4,8.215c-17.604,9.268-36.039,19.073-53.643,28.341
			c0,0-13.308,6.962-23.78,11.365c-0.25-0.587-20.058-40.823-21.977-44.092c4.923-2.422,15.217-7.737,15.217-7.737
			C1484.506,1369.079,1497.969,1366.003,1522.421,1337.391z"></path><path fill="#C18C7C" d="M1539.629 1376.199c.179.443 2.379-.027 4.915-1.05 2.535-1.023 4.446-2.211 4.267-2.655-.179-.443-2.379.027-4.915 1.05C1541.361 1374.567 1539.45 1375.755 1539.629 1376.199zM1544.137 1389.579c.179.443 2.379-.027 4.915-1.049 2.535-1.023 4.446-2.211 4.267-2.655-.179-.443-2.379.027-4.915 1.05C1545.869 1387.948 1543.959 1389.136 1544.137 1389.579zM1547.305 1402.435c.179.443 2.379-.027 4.915-1.05 2.535-1.023 4.446-2.211 4.267-2.655-.179-.443-2.379.027-4.915 1.05C1549.037 1400.803 1547.126 1401.992 1547.305 1402.435zM1539.613 1405.413c.441-.186-1.484-5.747-4.298-12.42-2.814-6.674-5.453-11.934-5.893-11.748-.441.186 1.484 5.746 4.298 12.421C1536.534 1400.339 1539.173 1405.599 1539.613 1405.413zM1504.427 1399.041c.046.11.495.012 1.283-.265.771-.308 1.961-.644 3.202-1.513 2.6-1.459 5.844-4.571 7.436-9.014 1.66-4.41 1.363-8.737.89-11.647-.546-2.946-1.359-4.634-1.579-4.555-.231.075.146 1.841.365 4.707.152 2.838.221 6.888-1.3 10.898-1.453 4.036-4.203 6.953-6.502 8.601-1.077.947-2.145 1.433-2.804 1.916C1504.741 1398.624 1504.382 1398.931 1504.427 1399.041zM1479.565 1397.042c-.119.01-.163.556-.138 1.544.025.987.078 2.424.415 4.162.547 3.49 1.926 8.256 4.408 13.071 4.917 9.742 11.908 15.46 12.177 15.054.344-.326-5.89-6.417-10.636-15.84C1480.858 1405.679 1480.148 1396.957 1479.565 1397.042z" enable-background="new"></path><path fill="#FFC439" d="M1215.885,1456.891c27.696,0,79.76-15.255,71.094-33.541c-19.955-42.11-31.565-109.531-36.472-112.776
		c-4.907-3.245-22.127-12.093-22.127-12.093s-30.141,68.489-31.206,78.424C1196.109,1386.84,1215.885,1456.891,1215.885,1456.891z"></path><path fill="#DBA12C" d="M1286.499,1432.439c-6.089,10.63-30.445,19.212-51.853,22.728v-101.589
		C1234.646,1353.578,1246.71,1424.904,1286.499,1432.439z"></path><path fill="#D7A28E" d="M972.604,1896.622c0,0-71.301,180.552-127.373,199.38c-79.654,26.748-374.352,30.769-374.352,30.769
					s-43.27-3.379-9.74-44.196l321.335-70.444c0,0,35.221-135.034,51.48-176.159
					C850.181,1794.845,972.604,1896.622,972.604,1896.622z"></path><path fill="#C18C7C" d="M859.965,1899.834l6.408,20.555c0,0,42.943,17.767,46.586,31.492
					c3.643,13.725-19.449,107.543-69.683,131.38c-50.233,23.837-210.904,37.936-210.904,37.936s217.174-18.223,229.422-22.247
					c12.249-4.022,109.242-177.192,109.242-177.192L859.965,1899.834z"></path><path fill="#C18C7C" d="M786.172,2012.96c6.253-2.504,34.829,18.669,33.102,22.311c-1.728,3.641-28.822-14.796-28.822-14.796
					s26.173,46.125,9.806,43.604C783.891,2061.559,771.047,2019.016,786.172,2012.96z"></path><path fill="#11405C" d="M452.094,2083.884c0,0-46.688,5.993-47.278,15.455c-0.591,9.461-0.559,16.961,1.434,17.087
					c1.992,0.124,19.712,1.229,19.712,1.229S450.604,2101.16,452.094,2083.884z"></path><path fill="#11405C" d="M475.548,2127.062c0,0-66.057,81.309-94.012,85.62c-9.428,1.455-11.837-16.552-1.181-42.121
					c10.627-25.601,72.812-113.448,86.27-89.797C466.624,2080.764,444.849,2105.277,475.548,2127.062z"></path><path fill="#2F627C" d="M435.468 2094.813c0 0-22.755 29.221-21.104 23.284S422.198 2100.171 435.468 2094.813zM471.124 2124.165c-18.161 11.912-49.62 52.756-59.337 53.41-11.328.809 30.819-59.957 47.468-74.568C457.673 2110.076 464.685 2121.885 471.124 2124.165z"></path><path fill="#11405C" d="M1136.088,1346.822c11.204,60.067-161.637,93.996-184.355-33.814
				c-104.018-9.753-48.264-127.191,24.437-139.198c99.991-116.966,349.776-122.726,278.126,47.552
				c-22.867,54.345-55.511,58.524-117.634,57.227L1136.088,1346.822z"></path><path fill="#D7A28E" d="M988.1,1861.046c0,0,82.865,173.157,109.808,252.673c0,0,28.689,261.259,18.96,338.346
				c0,0,32.105,79.957,49.396,20.581c4.49-71.848,49.621-358.614,49.621-358.614l-70.384-264.825L988.1,1861.046z"></path><path fill="#C18C7C" d="M1160.649,1905.726l7.242,27.733c0,0-106.406,17.921-103.787,26.527
				c2.619,8.607,13.847,91.306,34.427,101.784s56.505,9.73,46.027,14.22c-10.479,4.491-37.795,13.846-32.182,18.336
				s86.067,25.82,58.75,30.311c-27.317,4.49-55.382-4.117-52.389,7.483c2.993,11.601,6.503,313.411,6.503,313.411l-7.172-9.894
				l-20.161-321.917l-94.798-225.957L1160.649,1905.726z"></path><path fill="#FFC439" d="M1245.6,1355.198c-0.084,16.295,6.93,83.899,4.327,90.87c-11.675,30.991-97.032,58.839-102.911,133.842
				c-5.963,74.916,30.068,342.084,30.068,342.084s-320.837,38.969-395.333-59.465c0,0,76.596-199.977,168.817-289.423
				c92.218-89.7,74.44-153.564,71.501-207.483c-2.94-53.67,95.797-90.808,95.797-90.808s73.711,33.71,104.645,23.95
				C1245.506,1291.509,1245.6,1355.198,1245.6,1355.198z"></path><path fill="#DBA12C" d="M1038.559 1512.63c37.233 86.367 65.232 112.967 82.74 127.38 17.508 14.413-57.588-26.774-58.399 0-.811 26.774 30.587 31.642 34.36 47.869 3.773 16.227-78.983-20.283-96.833-68.152-17.849-47.869 4.868 2.434 43.812 0C1083.183 1617.292 1036.125 1534.536 1038.559 1512.63zM852.944 1845.247c-6.811-19.631-22.624-78.161-11.904-79.634C851.76 1764.14 852.944 1845.247 852.944 1845.247zM815.008 1826.643c9.585-53.406 41.912 63.616 41.912 63.616S804.53 1885.02 815.008 1826.643zM1107.145 1459.764c32.182 20.955 65.751 0 65.751 0s-3.929 22.692 34.014 16.211c0 0-25.672 13.301-42.886 1.164 0 0-13.222 5.842-26.444 6.59C1124.358 1484.478 1107.145 1459.764 1107.145 1459.764z"></path><path fill="#11405C" d="M1118.068,2435.636c0,0-28.775,27.744-22.531,44.119c6.245,16.347-22.042,55.867-16.091,53.511
				c2.296-0.851,12.642,2.701,25.948,8.091c3.026,1.226,9.696-20.704,12.969-19.317c20.182,8.548,40.411,42.817,53.606,49.228
				c0,0,58.345,32.81,62.529,12.458c4.18-20.322-53.814-59.184-55.14-71.465c-1.325-12.341-12.109-52.163-12.109-52.163
				S1140.188,2471.598,1118.068,2435.636z"></path><g><path fill="#D7A28E" d="M1141.17,1287.7c1.056-14.128,11.58-61.152,12.445-71.893c0.257-3.195,36.483,23.268,36.483,23.268
				s10.794,51.531,11.527,66.864c2.868,2.754-8.649,43.538-22.064,42.616C1166.149,1347.633,1140.705,1293.932,1141.17,1287.7z"></path><path fill="#C18C7C" d="M1190.606,1241.909l6.568,33.437c0,0-37.74-38.06-33.714-45.667
				C1167.487,1222.071,1190.606,1241.909,1190.606,1241.909z"></path><path fill="#D7A28E" d="M1229.909,1242.034c-37.961,32.818-75.254-22.981-76.987-22.674c-1.733,0.308-3.234,1.374-4.909,1.912
				c-6.5,2.087-11.992-8.309-14.56-14.636c-8.253-20.348,8.418-18.305,11.855-14.08c2.528-0.542-18.91-37.134,29.526-56.63
				c24.729-5.779,34.415,5.403,43.227,16.571c14.634,18.543,24.853,47.961,21.338,71.32
				C1238.292,1231.186,1235.594,1237.119,1229.909,1242.034z"></path><path fill="#11405C" d="M1139.335 1195.009l2.087 6.269-4.785.001 4.609 2.521c1.741 2.305 1.465 5.868 1.465 5.868C1146.324 1204.597 1141.881 1197.255 1139.335 1195.009zM1222.511 1143.768c0 0-7.723 14.164-21.628 8.062-13.905-6.101-31.284-17.263-33.953 1.526-1.035 7.29-19.268 7.195-14.437 19.939 4.447 11.731-3.88 23.622-10.645 17.129-10.192-9.782-13.925-33.799 10.045-51.233C1175.866 1121.759 1216.421 1128.079 1222.511 1143.768z"></path><path fill="#11405C" d="M1164.395 1178.25c1.523 1.533 7.532-1.965 11.378-5.786 3.846-3.822 4.073-6.517 2.549-8.051-1.524-1.533-4.221-1.324-8.066 2.496C1166.408 1170.731 1162.871 1176.716 1164.395 1178.25zM1219.762 1164.188c-.522 2.098-7.475 2.168-12.736.856-5.259-1.313-6.834-3.511-6.312-5.61.524-2.098 2.949-3.298 8.208-1.986C1214.183 1158.76 1220.286 1162.089 1219.762 1164.188z"></path><g opacity=".1"><path fill="#C18C7C" d="M1177.673,1196.018c0.314,2.384,3.76,3.895,7.696,3.375
						c3.936-0.52,6.871-2.875,6.555-5.257c-0.315-2.383-3.762-3.895-7.697-3.373
						C1180.293,1191.282,1177.358,1193.635,1177.673,1196.018z" enable-background="new" opacity=".5"></path></g><g opacity=".1"><path fill="#C18C7C" d="M1214.927,1188.337c0.315,2.384,3.761,3.895,7.697,3.375
						c3.936-0.521,6.871-2.875,6.554-5.257c-0.315-2.384-3.761-3.895-7.696-3.373
						C1217.546,1183.6,1214.611,1185.954,1214.927,1188.337z" enable-background="new" opacity=".5"></path></g><path fill="#FFF" d="M1217.051,1210.887c-3.232,1.153-3.922,3.922-13.728,0c-9.806-3.922-13.401-7.014-15.037-1.873
				c-1.634,5.142,17.652,21.696,28.765,13.523C1228.165,1214.365,1219.229,1210.109,1217.051,1210.887z"></path><path fill="#11405C" d="M1174.004 1192.264c.74 0 1.469-.341 1.938-.986 5.702-7.86 12.055-10.445 12.118-10.471 1.224-.486 1.829-1.87 1.35-3.096-.481-1.227-1.854-1.835-3.084-1.36-.31.121-7.672 3.044-14.254 12.118-.775 1.07-.537 2.564.53 3.339C1173.027 1192.116 1173.518 1192.264 1174.004 1192.264zM1205.35 1199.469c.279 0 .562-.05.84-.154 3.649-1.369 4.693-3.503 4.926-5.052.432-2.876-1.457-5.899-5.777-9.238-5.275-4.078-6.061-10.663-6.068-10.729-.145-1.309-1.344-2.256-2.63-2.117-1.309.14-2.259 1.308-2.125 2.616.036.352.965 8.653 7.897 14.011 3.322 2.569 4.052 4.226 3.973 4.744-.034.23-.469.76-1.877 1.287-1.236.465-1.863 1.843-1.4 3.079C1203.471 1198.875 1204.382 1199.469 1205.35 1199.469zM1223.047 1179.435c.634 0 1.263-.247 1.732-.741.905-.954.877-2.453-.069-3.363-.266-.255-6.649-6.259-18.199-5.066-1.312.135-2.268 1.309-2.133 2.622.135 1.314 1.328 2.278 2.623 2.133 9.246-.945 14.197 3.576 14.404 3.767C1221.867 1179.221 1222.459 1179.435 1223.047 1179.435z"></path><path fill="#C18C7C" d="M1209.692,1234.708c1.865,0,3.859-0.382,5.967-1.38
				c1.194-0.563,1.703-1.989,1.138-3.183c-0.566-1.193-1.992-1.703-3.183-1.138c-4.227,2.002-7.66,0.393-11.291-1.305l-0.43-0.2
				c-1.196-0.559-2.618-0.041-3.177,1.156c-0.558,1.196-0.04,2.619,1.156,3.177l0.423,0.198
				C1202.846,1233.224,1206.017,1234.708,1209.692,1234.708z" enable-background="new" opacity=".5"></path></g><path fill="#DBA12C" d="M1119.861,1279.582c0,0,5.988,40.885-5.239,46.873C1103.396,1332.442,1119.861,1279.582,1119.861,1279.582
			z"></path><g><path fill="#D7A28E" d="M1421.773,1740.151c14.611,8.339,23.792,21.565,27.312,27.327c5.96,9.792,15.853,50.525,15.853,50.525
			s-5.271,2.296-7.6,2.013c-3.785-0.461-8.247-5.99-11.124-13.149c1.061,5.276,2.064,15.122,2.064,15.122s-6.678,1.031-8.824,0.054
			c-2.873-1.308-6.365-6.534-8.029-11.107c0.355,3.812,1.331,10.223,1.331,10.223s-7.636,0.326-9.616-0.963
			c-3.765-2.452-6.669-9.604-8.802-15.93c0.9,4.786,0.52,13.268,0.52,13.268s-6.865-1.074-8.692-2.199
			c-7.1-4.371-14.574-28.776-14.574-28.776c-24.051-0.505-35.263-11.117-42.402-19.234c-1.701-1.983,39.367-38.368,39.367-38.368
			S1410.879,1733.902,1421.773,1740.151z"></path><path fill="#C18C7C" d="M1437.169 1779.891c-.201.114.44 1.573 1.354 3.966.91 2.396 2.1 5.728 3.275 9.465 2.365 7.47 4.004 13.634 4.416 13.545.403-.081-.586-6.442-2.979-14.002-1.188-3.779-2.56-7.114-3.737-9.441C1438.314 1781.097 1437.329 1779.797 1437.169 1779.891zM1423.352 1785.057c-.2.091.256 1.54.982 3.872.78 2.567 1.73 5.69 2.779 9.142 2.145 7.154 3.903 12.966 4.312 12.865.4-.097-.709-6.097-2.868-13.299-1.077-3.6-2.232-6.812-3.224-9.079C1424.34 1786.29 1423.531 1784.974 1423.352 1785.057zM1410.444 1791.533c-.401.113.244 3.641 1.44 7.88 1.196 4.239 2.49 7.584 2.891 7.471.401-.113-.244-3.641-1.44-7.88C1412.139 1794.765 1410.845 1791.42 1410.444 1791.533z" enable-background="new"></path></g><path fill="#D7A28E" d="M1183.408,1544.438l-57.602-139.343l-82.006,40.728c30.281,78.088,67.375,164.135,67.375,164.135
		l242.333,160.239l36.155-40.985L1183.408,1544.438z"></path><path fill="#C18C7C" d="M1135.056 1428.218l6.022 13.819-70.63 70.593-16.466-40.875C1053.981 1471.755 1106.253 1450.327 1135.056 1428.218zM1180.636 1545.918c0 0-8.545 33.125-16.865 32.418S1174.431 1548.177 1180.636 1545.918z" enable-background="new"></path><path fill="#FFC439" d="M1043.8,1475.478c3.708,6.296,103.546-48.973,96.555-61.34c-29.651-52.45-39.135-132.084-39.135-132.084
		s-75.888,20.951-83.584,38.255C1004.105,1350.735,1034.482,1459.658,1043.8,1475.478z"></path><path fill="#DBA12C" d="M1110.704,1348.57c0,0,27.215,63.016,24.555,70.723c-2.66,7.708-77.483,53.403-87.625,52.462
		s-26.646-71.387-26.646-71.387s6.362,67.2,16.909,80.181c10.547,12.981,98.578-44.624,107.097-56.794
		S1110.704,1348.57,1110.704,1348.57z"></path></g></svg>