<svg xmlns="http://www.w3.org/2000/svg" width="900" height="900" id="delivery"><linearGradient id="a" x1="261.567" x2="744.424" y1="317.736" y2="800.592" gradientUnits="userSpaceOnUse"><stop offset="0" stop-color="#5a55f8"></stop><stop offset="1" stop-color="#8c6ae2"></stop></linearGradient><path fill="url(#a)" d="M772 261c34.5 26 49.891 61.472 42.334 122.667-6.668 54-28.334 75.667-13.333 124.667C814.968 553.955 867.384 675.789 783 762s-231.332 63.666-283.999 56.333S381 798 306.334 819c-68.021 19.131-127.385 6.323-148.084-45-20.501-50.833 8.084-114.333 28.751-150.333s22.88-67.169-8-80C142.5 528.5 118 484.5 156.5 428c34.17-50.146 99.073-98.791 247.168-133 67.098-15.5 115.332-20.5 198.666-47.333C651.726 231.762 726.494 226.706 772 261z"></path><linearGradient id="b" x1="559.884" x2="886.624" y1="330.966" y2="657.706" gradientUnits="userSpaceOnUse"><stop offset="0" stop-color="#1aa9e8"></stop><stop offset=".422" stop-color="#3d80ef"></stop><stop offset=".791" stop-color="#5662f4"></stop><stop offset="1" stop-color="#5f57f6"></stop></linearGradient><path fill="url(#b)" d="M801.001 508.333c-15.001-48.999 6.665-70.666 13.333-124.667C821.891 322.472 806.5 287 772 261c-31.389-23.655-76.698-28.586-118-24.151V709l136.53 44.799c73.608-85.567 24-201.273 10.471-245.466z"></path><path fill="#1AA9E8" d="M725.5 736.576v-496.38c-.996-.233-1.996-.458-3-.673v497.053h3z"></path><g opacity=".7"><linearGradient id="c" x1="604.334" x2="604.334" y1="771.667" y2="173" gradientUnits="userSpaceOnUse"><stop offset="0" stop-color="#ff57bd"></stop><stop offset="1" stop-color="#a281ff"></stop></linearGradient><path fill="url(#c)" d="M606.834 716.478V246.27c-1.521.456-3.022.921-4.5 1.396l-.5.159v467.858c1.695.26 3.362.525 5 .795z"></path><linearGradient id="d" x1="530.734" x2="530.734" y1="784.334" y2="185.667" gradientUnits="userSpaceOnUse"><stop offset="0" stop-color="#ff57bd"></stop><stop offset="1" stop-color="#a281ff"></stop></linearGradient><path fill="url(#d)" d="M533.234 709.838V267.316c-1.68.413-3.342.814-5 1.212v441.219c1.679.024 3.348.053 5 .091z"></path><linearGradient id="e" x1="457.134" x2="457.134" y1="797" y2="198.333" gradientUnits="userSpaceOnUse"><stop offset="0" stop-color="#ff57bd"></stop><stop offset="1" stop-color="#a281ff"></stop></linearGradient><path fill="url(#e)" d="M459.634 712.528V283.169l-5 1v428.844c1.675-.167 3.343-.331 5-.485z"></path><linearGradient id="f" x1="383.534" x2="383.534" y1="809.666" y2="211" gradientUnits="userSpaceOnUse"><stop offset="0" stop-color="#ff57bd"></stop><stop offset="1" stop-color="#a281ff"></stop></linearGradient><path fill="url(#f)" d="M386.034 724.745V299.244c-1.678.419-3.345.841-5 1.264v425.547a434.41 434.41 0 0 1 5-1.31z"></path><linearGradient id="g" x1="309.935" x2="309.935" y1="822.332" y2="223.667" gradientUnits="userSpaceOnUse"><stop offset="0" stop-color="#ff57bd"></stop><stop offset="1" stop-color="#a281ff"></stop></linearGradient><path fill="url(#g)" d="M312.435 750.667V321.316c-1.683.605-3.35 1.213-5 1.824v429.815a476.287 476.287 0 0 1 5-2.288z"></path><linearGradient id="h" x1="236.334" x2="236.334" y1="834.998" y2="236.333" gradientUnits="userSpaceOnUse"><stop offset="0" stop-color="#ff57bd"></stop><stop offset="1" stop-color="#a281ff"></stop></linearGradient><path fill="url(#h)" d="M238.834 791.662V354.679a346.28 346.28 0 0 0-5 2.928V795.07a519.338 519.338 0 0 1 5-3.408z"></path></g><linearGradient id="i" x1="353.05" x2="634.157" y1="629.753" y2="910.86" gradientUnits="userSpaceOnUse"><stop offset="0" stop-color="#c7a0f6"></stop><stop offset="1" stop-color="#ff57bd"></stop></linearGradient><path fill="url(#i)" d="M306.334 819c74.666-21 140-8 192.667-.667S698.616 848.211 783 762c8.744-8.934 16-18.255 22.001-27.829-47.845-25.449-147.075-61.128-319.334-53.171-188.655 8.715-271.339 71.57-302.18 126.722 28.78 22.213 73.531 25.148 122.847 11.278z"></path><linearGradient id="j" x1="739.5" x2="752.5" y1="419.5" y2="419.5" gradientUnits="userSpaceOnUse"><stop offset="0" stop-color="#ff57bd"></stop><stop offset="1" stop-color="#fe6a77"></stop></linearGradient><circle cx="746" cy="419.5" r="6.5" fill="url(#j)"></circle><linearGradient id="k" x1="694.75" x2="707.75" y1="418.25" y2="418.25" gradientUnits="userSpaceOnUse"><stop offset="0" stop-color="#ff57bd"></stop><stop offset="1" stop-color="#fe6a77"></stop></linearGradient><circle cx="701.25" cy="418.25" r="6.5" fill="url(#k)"></circle><linearGradient id="l" x1="426.948" x2="163.764" y1="256.53" y2="24.259" gradientTransform="matrix(-.8499 .0159 -.0188 -.9998 495.457 313.258)" gradientUnits="userSpaceOnUse"><stop offset="0" stop-color="#1aa9e8"></stop><stop offset="1" stop-color="#5a55f8"></stop></linearGradient><path fill="url(#l)" d="M144 305.833c-26.5-18.5 9.766-53.886-13.667-80.833-20-23-58.873-43.865-50.313-87.854C89 91 164 76.667 205.694 84.858c26.371 5.181 30.805 4.237 76.973-3.191C342.75 72 389.5 92 413 123.5c22.223 29.788 25.667 75.5-13.076 96.866C368.485 237.705 312.5 246.5 276 259.5c-73.498 26.177-104.293 65.676-132 46.333z"></path><linearGradient id="m" x1="419.563" x2="608.225" y1="751.291" y2="751.291" gradientUnits="userSpaceOnUse"><stop offset="0" stop-color="#ffe2a8"></stop><stop offset=".418" stop-color="#97e2c4"></stop><stop offset="1" stop-color="#00e2ec"></stop></linearGradient><path fill="url(#m)" d="M608.225 747.023a103.387 103.387 0 0 0-14.923-12.065c-8.301-5.534-17.354-9.917-26.802-13.138-18.924-6.426-39.349-8.215-59.262-5.449-19.896 2.794-39.42 10.338-55.739 22.909-8.14 6.276-15.451 13.815-21.327 22.509a86.861 86.861 0 0 0-7.635 13.821 82.203 82.203 0 0 0-2.975 7.88l15.705 3.979c1.751-6.07 4.358-11.881 7.736-17.352 4.574-7.415 10.503-14.103 17.328-19.827 13.675-11.479 30.816-19.049 48.769-22.317 17.976-3.262 36.882-2.42 54.551 2.791 14.077 4.148 27.456 11.157 38.523 20.844l6.051-4.585z"></path><linearGradient id="n" x1="313.642" x2="502.304" y1="717.443" y2="717.443" gradientUnits="userSpaceOnUse"><stop offset="0" stop-color="#ffe2a8"></stop><stop offset=".418" stop-color="#97e2c4"></stop><stop offset="1" stop-color="#00e2ec"></stop></linearGradient><path fill="url(#n)" d="M502.304 714.176a103.387 103.387 0 0 0-14.923-12.065c-8.301-5.534-17.354-9.917-26.802-13.138-18.924-6.426-39.349-8.215-59.262-5.449-19.896 2.794-39.42 10.338-55.739 22.909-8.14 6.276-15.451 13.815-21.327 22.509a86.861 86.861 0 0 0-7.635 13.821 82.203 82.203 0 0 0-2.975 7.88l12.705 1.979c1.751-6.07 4.358-11.881 7.736-17.352 4.574-7.415 10.503-14.103 17.328-19.827 13.675-11.479 30.816-19.049 48.769-22.317 17.976-3.262 36.882-2.42 54.551 2.791 14.077 4.148 27.456 11.157 38.523 20.844l9.051-2.585z"></path><linearGradient id="o" x1="331" x2="712.667" y1="586.654" y2="586.654" gradientUnits="userSpaceOnUse"><stop offset="0" stop-color="#994574"></stop><stop offset="1" stop-color="#43256f"></stop></linearGradient><path fill="url(#o)" d="M712.667 483.334 546 444.25s-18.198 114.754-78.333 141.417C397 617 331 617 331 617l34.118 79.285S423 737 511.667 727.667c143.102-15.063 183.583-145.167 201-244.333z"></path><linearGradient id="p" x1="90.478" x2="178.5" y1="710.313" y2="710.313" gradientUnits="userSpaceOnUse"><stop offset="0" stop-color="#f4bea3"></stop><stop offset="1" stop-color="#e8878e"></stop></linearGradient><path fill="url(#p)" d="M178.5 722.001c-4.284 2.904-44.81 15.916-52.708 16.338-8.479.452-36.2-44.688-35.292-52.964.559-5.101 5.866-2.813 9.125-.75 3.259 2.065 22 15.375 31.25 16.25 11.722 1.108 27.802-10.486 27.802-10.486l19.823 31.612z"></path><linearGradient id="q" x1="82.517" x2="119.554" y1="698.99" y2="698.99" gradientUnits="userSpaceOnUse"><stop offset="0" stop-color="#fe6a77"></stop><stop offset="1" stop-color="#c91c91"></stop></linearGradient><path fill="url(#q)" d="M119.449 692.219c.981 2.798-4.886 19.531-17.949 28.094-22.182-28.184-18.798-41.636-18.798-41.636s1.635-1.464 5.103-.867c4.278.736 31.644 14.409 31.644 14.409z"></path><linearGradient id="r" x1="80.72" x2="116.339" y1="709.963" y2="709.963" gradientUnits="userSpaceOnUse"><stop offset="0" stop-color="#994574"></stop><stop offset="1" stop-color="#43256f"></stop></linearGradient><path fill="url(#r)" d="M83.968 678.015c.497 10.302 8.671 25.195 17.691 39.62 7.716 12.341 14.498 22.08 14.675 22.615.177.534-3.924 2.452-5.649 1.297-1.726-1.154-9.532-12.542-18.601-29.797-9.417-17.917-11.645-25.783-11.336-29.623.31-3.838 3.22-4.112 3.22-4.112z"></path><linearGradient id="s" x1="147.665" x2="475.585" y1="640.316" y2="640.316" gradientUnits="userSpaceOnUse"><stop offset="0" stop-color="#05c5da"></stop><stop offset="1" stop-color="#5860c4"></stop></linearGradient><path fill="url(#s)" d="M429.619 554.283s-121.037 61.222-169.952 84.05c-45 21.001-111.772 54.111-112 56.333s20.352 31.156 27.667 31.667c14.333 1 114.667-45 144.668-53.334 23.969-6.658 138.834-37.456 155.583-40.228l-45.966-78.488z"></path><path fill="#00E2EC" d="M164.91 719.439a1 1 0 0 1-.311-1.95c5.792-1.899 101.7-37.436 127.968-50.058a1 1 0 1 1 .866 1.803c-26.327 12.65-122.41 48.253-128.211 50.155a.974.974 0 0 1-.312.05z"></path><linearGradient id="t" x1="421.053" x2="500.088" y1="453.76" y2="532.795" gradientUnits="userSpaceOnUse"><stop offset="0" stop-color="#f9a144"></stop><stop offset="1" stop-color="#fde1a7"></stop></linearGradient><path fill="url(#t)" d="M569.599 457.305c-14.25-2.89-32.573-6.574-45.692-3.473-31.739 7.502-49.732 58.729-77.739 65.835-16.546 4.198-52.98-4.362-80.923-10.099l-5.094 28.523c29.137 11.295 61.889 22.662 79.1 24.158C468 564.75 580.063 459.427 569.599 457.305z"></path><linearGradient id="u" x1="302.5" x2="365.244" y1="521.429" y2="521.429" gradientUnits="userSpaceOnUse"><stop offset="0" stop-color="#f4bea3"></stop><stop offset="1" stop-color="#e8878e"></stop></linearGradient><path fill="url(#u)" d="M340.25 505.25c-25-2.5-33.756 5.305-37.75 9 0 0 26.799 11.881 57.65 23.842l5.094-28.523c-9.773-2.007-18.516-3.672-24.994-4.319z"></path><path fill="#C66C50" d="M326.552 515.399a.5.5 0 0 1-.404-.793c2.588-3.575 10.816-2.913 17.431-2.382 2.461.198 4.585.369 5.973.277a.501.501 0 0 1 .066.998c-1.458.097-3.618-.078-6.118-.279-6.027-.483-14.283-1.148-16.54 1.972a.505.505 0 0 1-.408.207z"></path><path fill="#FDE1A7" d="M360.151 539.092a1 1 0 0 1-.986-1.176l5.094-28.523a1.001 1.001 0 0 1 1.969.351l-5.094 28.523a.999.999 0 0 1-.983.825z"></path><linearGradient id="v" x1="345.129" x2="405.663" y1="745.438" y2="745.438" gradientUnits="userSpaceOnUse"><stop offset="0" stop-color="#f4bea3"></stop><stop offset="1" stop-color="#e8878e"></stop></linearGradient><path fill="url(#v)" d="M385.875 708.875c1.803 4.261 20.75 32.75 19.75 39.75-1.074 7.515-51.275 35.481-58.375 33.25-4.375-1.375-1-6.25 1.375-8.75S369.25 752 367.375 740.75c-1.01-6.061-9.5-19.25-9.5-19.25l28-12.625z"></path><linearGradient id="w" x1="337.84" x2="379.625" y1="769.113" y2="769.113" gradientUnits="userSpaceOnUse"><stop offset="0" stop-color="#fe6a77"></stop><stop offset="1" stop-color="#c91c91"></stop></linearGradient><path fill="url(#w)" d="M356.5 754.125c2.625-.375 17.875 5.875 23.125 17.5C351.063 786.188 338.25 784 338.25 784s-1-1.688.125-4.625c1.388-3.624 18.125-25.25 18.125-25.25z"></path><linearGradient id="x" x1="337.84" x2="410.944" y1="771.053" y2="771.053" gradientUnits="userSpaceOnUse"><stop offset="0" stop-color="#994574"></stop><stop offset="1" stop-color="#43256f"></stop></linearGradient><path fill="url(#x)" d="M337.843 782.003c3.219-.003 23.207-6.13 37.525-11.254s34.194-15.124 34.694-15.187 1.563 3.125.25 4.438-25.729 13.917-42.125 19.813c-15.474 5.564-23.938 7.438-27.25 6.5s-3.094-4.31-3.094-4.31z"></path><linearGradient id="y" x1="263.211" x2="500.81" y1="618.234" y2="618.234" gradientUnits="userSpaceOnUse"><stop offset="0" stop-color="#00e2ec"></stop><stop offset="1" stop-color="#0090b2"></stop></linearGradient><path fill="url(#y)" d="M293.667 510.334c-32.417 4.166-34.165 40.746-27 62.667 12.583 38.499 84.004 149.538 86.667 152.667 3.895 4.577 37-12.667 38.333-15.667s-19.585-49.794-30-70c-12.333-23.927-36.333-65.667-36.333-65.667s85.167 118.416 173 102c.83-.155 1.652-.324 2.477-.487L429.62 554.284c-18.514-2.421-101.431-48.387-135.953-43.95z"></path><path fill="#00E2EC" d="M484.229 654.362c-31.824 0-81.51-29.272-144.112-84.976-1.571-1.398-2.678-2.384-3.259-2.87a1 1 0 0 1 1.285-1.533c.589.494 1.71 1.492 3.303 2.909 81.456 72.479 124.377 85.874 146.059 84.357a.986.986 0 0 1 1.067.927.998.998 0 0 1-.927 1.067c-1.114.08-2.255.119-3.416.119z"></path><path fill="#0FF" d="M305.5 576.75a1 1 0 0 1-.904-.572c-1.472-3.106-5.951-12.563-2.027-19.189 2.215-3.742 6.714-5.84 13.372-6.236a1 1 0 1 1 .12 1.996c-5.954.354-9.914 2.124-11.77 5.259-2.244 3.791-1.533 9.616 2.114 17.315a1 1 0 0 1-.905 1.427zM380.483 718.218a1 1 0 0 1-.929-.629c-9.433-23.571-54.792-112.386-60.647-121.551a1 1 0 0 1 1.685-1.076c5.874 9.193 51.362 98.254 60.818 121.885a1 1 0 0 1-.927 1.371z"></path><path fill="#00E2EC" d="M448.448 645.373a1 1 0 0 1-.996-1.098c.638-6.485 6.965-19.796 18.521-27.77a1.001 1.001 0 0 1 1.137 1.647c-11.432 7.887-17.147 21.033-17.667 26.318a1.002 1.002 0 0 1-.995.903z"></path><linearGradient id="z" x1="483.097" x2="604.12" y1="500.807" y2="621.83" gradientUnits="userSpaceOnUse"><stop offset="0" stop-color="#fde1a7"></stop><stop offset="1" stop-color="#f9a144"></stop></linearGradient><path fill="url(#z)" d="M646.333 530.333c.417-40.333-42.833-62.083-63.999-69.666-3.377-1.21-20.859-5.938-35.859-6.938s-30.868 17.961-46.142 44.272C483.5 527 455.838 557.004 430 554.334c-.12-.013-.255-.035-.381-.051l71.191 121.563c89.144-17.7 144.899-85.157 145.523-145.513z"></path><path fill="#FFF" d="M500.812 676.847a.999.999 0 0 1-.864-.495l-71.191-121.563a1 1 0 1 1 1.725-1.01l71.192 121.563a1.001 1.001 0 0 1-.862 1.505z"></path><linearGradient id="A" x1="553.639" x2="577.001" y1="380.236" y2="380.236" gradientUnits="userSpaceOnUse"><stop offset="0" stop-color="#c5188e"></stop><stop offset="1" stop-color="#9f36ad"></stop></linearGradient><path fill="url(#A)" d="M564.188 366.438c-1.804-.295.146 6.808-2.687 7.479-3.251.771-7.438-.792-7.833 6.25-.265 4.729 1.334 12.333 2 13.75s21.333-9.499 21.333-11.75c0-1-11.759-15.557-12.813-15.729z"></path><linearGradient id="B" x1="554.334" x2="595.46" y1="457.381" y2="457.381" gradientUnits="userSpaceOnUse"><stop offset="0" stop-color="#e8878e"></stop><stop offset="1" stop-color="#e8878e"></stop></linearGradient><path fill="url(#B)" d="M563.5 446.167c-1.156 2.889-9.166 24-9.166 25.333s3.541 12.125 18.104 12.25c13.753.118 19.729-7.749 20.229-9.583s2.793-43.156 2.793-43.156-14.794 2.655-20.46 5.655-11.5 9.501-11.5 9.501z"></path><linearGradient id="C" x1="544.295" x2="606.076" y1="412.739" y2="412.739" gradientUnits="userSpaceOnUse"><stop offset="0" stop-color="#f4bea3"></stop><stop offset="1" stop-color="#e8878e"></stop></linearGradient><path fill="url(#C)" d="M598.819 425.654a25.407 25.407 0 0 0 1.556-3.779c1.35-4.3 12.125-18.875 0-32.625s-27.863-12.877-27.863-12.877c-27.012 10.252-33.604 54.408-24.137 65.502 10.73 12.574 28.038 6.989 39.896-3.219 1.68 1.502 4.019 2.438 6.608 2.438 5.111 0 9.255-3.631 9.255-8.109.001-3.243-2.177-6.033-5.315-7.331z"></path><linearGradient id="D" x1="550.33" x2="571.5" y1="408.396" y2="408.396" gradientUnits="userSpaceOnUse"><stop offset="0" stop-color="#ff57bd"></stop><stop offset="1" stop-color="#efa69a"></stop></linearGradient><path fill="url(#D)" d="M569.926 398.359c-2.537 1.399-19.855 13.208-19.593 17.056s6.822 3.236 10.496 2.711c3.673-.524 10.671-17.702 10.671-18.892 0-1.356-1.574-.875-1.574-.875z"></path><path fill="#FFF" d="M552.375 424.938c1.563 3 10.25 5.188 13.563 5.313-.688 1.5-5.154 7.103-10.5 5.375-6.188-2.001-3.063-10.688-3.063-10.688z"></path><path fill="#0090B2" d="M576.373 413.75a2.25 2.25 0 0 1-2.031-3.214c1.354-2.859 4.562-5.91 6.09-6.674a2.25 2.25 0 0 1 2.013 4.025c-.616.318-3.104 2.607-4.036 4.576a2.252 2.252 0 0 1-2.036 1.287zM557.948 402.505a2 2 0 0 1-1.806-2.857c1.022-2.159 3.572-4.76 5.001-5.475a2.001 2.001 0 0 1 1.792 3.577c-.507.271-2.44 2.054-3.178 3.61a2 2 0 0 1-1.809 1.145z"></path><linearGradient id="E" x1="563.111" x2="622.519" y1="389.066" y2="389.066" gradientUnits="userSpaceOnUse"><stop offset="0" stop-color="#cb2090"></stop><stop offset="1" stop-color="#43256f"></stop></linearGradient><path fill="url(#E)" d="M602.375 373.5c-2.5-2.25-2.017-9.108-6.125-10.875-4.166-1.792-9.764 1.744-12.5.375-2.166-1.083-2.5-5.875-3.375-9s-2.791-6.833-6.625-6.5c-11.659 1.013-14.234 18.111-5.232 30.71 9.316 13.04 31.483 14.956 31.233 30.873-.138 8.75-11.084 12.167-8.906 16.608 2.14 4.363 7.761.125 7.959-.027a.393.393 0 0 1 .012-.021c2.358.972 4.173 2.792 4.931 5.011 5.996-3.281 18.252-11.699 18.754-25.904.674-19.081-17.626-29-20.126-31.25z"></path><linearGradient id="F" x1="429.762" x2="456.681" y1="460.802" y2="460.802" gradientUnits="userSpaceOnUse"><stop offset="0" stop-color="#994574"></stop><stop offset="1" stop-color="#43256f"></stop></linearGradient><path fill="url(#F)" d="M429.875 449.625c0-1.625-.375-19.875 1.125-20.625s23.081 6.187 24.75 12c1.813 6.313.888 49.195-1.999 51.208-4.125 2.875-22.789-8.739-23.539-12.864s-.337-29.719-.337-29.719z"></path><path fill="#FF9BBB" d="m423.284 421.925-3.493-1.949c3.312-5.934 8.873-9.476 14.876-9.476 2.989 0 5.946.892 8.55 2.58l-2.175 3.356c-1.983-1.285-4.128-1.937-6.375-1.937-4.533.001-8.789 2.777-11.383 7.426zM417.268 410.107l-4.154-1.73c2.799-6.718 8.366-11.29 15.272-12.542 6.224-1.129 12.282.695 16.208 4.879l-3.281 3.079c-2.834-3.02-7.478-4.373-12.123-3.53-5.376.974-9.721 4.563-11.922 9.844zM408.506 394.721l-4.958-3.38c6.796-9.968 16.876-15.685 27.658-15.685 4.885 0 9.619 1.155 14.068 3.433l-2.734 5.341c-3.595-1.841-7.409-2.774-11.334-2.774-8.766.001-17.039 4.762-22.7 13.065z"></path><linearGradient id="G" x1="426.451" x2="467.063" y1="482.813" y2="482.813" gradientUnits="userSpaceOnUse"><stop offset="0" stop-color="#f4bea3"></stop><stop offset="1" stop-color="#e8878e"></stop></linearGradient><path fill="url(#G)" d="m467.063 506.066-.003-.006c-3.597-8.022-5.81-28.144-6.143-36.227s-1.415-9.535-3.083-9.584c-2.146-.063-3.084 1.625-4.146 6.625-.989 4.656-.438 15.625-2.813 16.375s-12.126-17.965-14.625-24.375c-2.875-7.375-3.128-13.774-5.948-13.913-1.76-.087-2.083 2.297-2.177 5.851-.086 3.251.875 8.938.875 8.938s-1.958.417-2.375 3.5c-.623 4.602.625 9.125.625 9.125s-1.276 2.298-.563 7.5c1.063 7.75 4.785 15.854 9.646 23.625 1.129 1.805 3.204 8.646 5.698 17.167 5.092-.603 13.831-3.365 25.032-14.601z"></path><path fill="#C66C50" d="M435.375 473.875a.498.498 0 0 1-.405-.206c-2.07-2.847-5.941-12.624-6.583-14.62a.5.5 0 0 1 .952-.307c.61 1.9 4.465 11.625 6.439 14.339a.499.499 0 0 1-.403.794zM430.872 480.874a.495.495 0 0 1-.35-.146c-.609-.608-3.262-5.758-3.762-8.256a.5.5 0 1 1 .98-.195c.497 2.483 3.085 7.331 3.489 7.744a.502.502 0 0 1-.357.853z"></path><linearGradient id="H" x1="442.031" x2="636.945" y1="568.041" y2="568.041" gradientUnits="userSpaceOnUse"><stop offset="0" stop-color="#fde1a7"></stop><stop offset="1" stop-color="#f9a144"></stop></linearGradient><path fill="url(#H)" d="M615 512.5c-44-2-84.039 63.5-96.833 62.501-6.416-.501-42.16-48.992-51.104-68.935-11.2 11.235-19.939 13.998-25.031 14.601 3.12 10.662 6.896 23.956 10.302 33.333C464.5 587.5 479 618.667 504.75 627.25c32.34 10.779 70.75-11.75 96.75-36.25s57.5-76.5 13.5-78.5z"></path><path fill="#FFF" d="M522.479 631.057c-6.029 0-12.079-.869-18.045-2.858-26.214-8.737-40.983-40.66-53.04-73.856-2.989-8.229-6.244-19.401-9.116-29.259l-1.207-4.135a.998.998 0 0 1 .842-1.274c5.261-.622 13.772-3.611 24.441-14.313a1.002 1.002 0 0 1 1.62.297c9.427 21.018 44.914 67.929 50.271 68.347 4.033.333 12.374-8.025 21.994-17.688 19.385-19.466 45.937-46.11 74.807-44.815 8.457.385 14.672 2.632 18.472 6.679a1 1 0 1 1-1.457 1.369c-3.432-3.654-9.188-5.689-17.106-6.05-27.982-1.299-54.177 25.026-73.298 44.229-10.785 10.833-18.577 18.632-23.567 18.271-7.014-.548-41.777-48.207-51.336-68.222-9.873 9.584-18.003 12.802-23.439 13.717l.884 3.03c2.863 9.828 6.108 20.969 9.074 29.135 11.886 32.725 26.387 64.174 51.794 72.644 39.428 13.143 83.254-24.256 95.748-36.029 4.972-4.686 10.062-10.305 14.72-16.252a.999.999 0 1 1 1.574 1.232c-4.719 6.025-9.879 11.723-14.923 16.475-10.828 10.2-44.834 39.323-79.707 39.326z"></path><linearGradient id="I" x1="527.498" x2="623.648" y1="649.902" y2="649.902" gradientUnits="userSpaceOnUse"><stop offset="0" stop-color="#ff57bd"></stop><stop offset="1" stop-color="#fe6a77"></stop></linearGradient><path fill="url(#I)" d="M545.472 682.683c3.385-7.959 8.097-15.305 13.773-21.732 5.674-6.438 12.305-11.957 19.496-16.482 7.194-4.528 14.95-8.069 22.948-10.69a117.724 117.724 0 0 1 21.959-4.926c-.093-1.75-.512-3.384-1.307-4.861-6.616-12.295-36.399-8.685-61.764 4.919-25.798 13.836-37.915 33.439-31.299 45.734 2.749 5.107 8.426 8.007 15.934 8.683.09-.215.169-.432.26-.645z"></path><linearGradient id="J" x1="535.375" x2="663.94" y1="674.67" y2="674.67" gradientUnits="userSpaceOnUse"><stop offset="0" stop-color="#ffe2a8"></stop><stop offset=".105" stop-color="#fae2a9"></stop><stop offset=".228" stop-color="#ece2ad"></stop><stop offset=".362" stop-color="#d4e2b3"></stop><stop offset=".502" stop-color="#b3e2bc"></stop><stop offset=".647" stop-color="#88e2c8"></stop><stop offset=".797" stop-color="#54e2d6"></stop><stop offset=".948" stop-color="#17e2e6"></stop><stop offset="1" stop-color="#00e2ec"></stop></linearGradient><path fill="url(#J)" d="M622.312 626.294a117.98 117.98 0 0 0-24.605 5.236c-7.998 2.621-15.754 6.162-22.948 10.69-7.191 4.525-13.822 10.045-19.496 16.482-5.677 6.428-10.389 13.773-13.773 21.732-3.392 7.953-5.445 16.515-5.973 25.194-.376 6.018.012 12.108 1.074 18.05 3.32-.723 6.567-1.523 9.763-2.38a65.977 65.977 0 0 1-1.153-15.168c.306-7.572 1.941-15.1 4.789-22.172 2.84-7.077 6.884-13.693 11.857-19.561 4.969-5.877 10.862-11.003 17.353-15.272 13.001-8.54 28.313-13.691 43.931-15.661 12.398-1.53 25.138-1.05 37.296 1.786a256.677 256.677 0 0 0 3.516-5.717c-13.517-3.735-27.724-4.663-41.631-3.239z"></path><linearGradient id="K" x1="341.642" x2="279.418" y1="702.534" y2="764.759" gradientTransform="matrix(-1 0 0 1 1067.313 0)" gradientUnits="userSpaceOnUse"><stop offset="0" stop-color="#5a55f8"></stop><stop offset="1" stop-color="#8c6ae2"></stop></linearGradient><path fill="url(#K)" d="M815.388 714.699h-89.173l13.91 79.842C755.518 785.97 770.003 775.278 783 762c14.58-14.896 25.071-30.855 32.388-47.301z"></path><path fill="#FF9BBB" d="M772.786 689.832c-25.783 0-46.686 11.934-46.686 26.654 0 14.723 20.902 26.655 46.686 26.655 11.761 0 22.497-2.488 30.706-6.586a156.163 156.163 0 0 0 14.203-27.348c-5.549-11.181-23.548-19.375-44.909-19.375z"></path><linearGradient id="L" x1="794.391" x2="751.183" y1="693.666" y2="736.874" gradientUnits="userSpaceOnUse"><stop offset="0" stop-color="#994574"></stop><stop offset="1" stop-color="#43256f"></stop></linearGradient><ellipse cx="772.786" cy="715.27" fill="url(#L)" rx="37.793" ry="20.927"></ellipse><linearGradient id="M" x1="274.244" x2="296.513" y1="519.738" y2="519.738" gradientTransform="matrix(-1 0 0 1 1067.313 0)" gradientUnits="userSpaceOnUse"><stop offset="0" stop-color="#f9a144"></stop><stop offset="1" stop-color="#fde1a7"></stop></linearGradient><path fill="url(#M)" d="M792.627 510.949c1.42 3.047-.696 6.039-4.687 7.673-4.532 1.856-7.979 1.543-9.52 5.63-1.54 4.088-.435 8.787-3.146 8.758s-7.229-11.216-2.224-19.412c5.05-8.268 16.335-9.607 19.577-2.649z"></path><linearGradient id="N" x1="295.665" x2="410.877" y1="677.441" y2="677.441" gradientTransform="matrix(-1 0 0 1 1067.313 0)" gradientUnits="userSpaceOnUse"><stop offset="0" stop-color="#0090b2"></stop><stop offset="1" stop-color="#00e2ec"></stop></linearGradient><path fill="url(#N)" d="M766.613 674.375c-2.193-6.031-24.537-37.559-63.74-40.574-35.414-2.725-49.405 13.524-45.92 20.698 2.33 4.798 10.691 3.427 14.118 2.467 3.427-.959 9.439-4.396 13.434-2.33 3.976 2.057 3.502 7.319 7.539 9.321 7.239 3.589 14.69-2.407 20.836-4.798 7.401-2.878 19.875-5.482 28.785 2.742 10.908 10.069 13.189 18.774 16.602 34.061 3.411 15.286 5.025 22.848 5.742 23.784.891 1.166 2.33 2.468 6.168.96s-1.097-21.109-.686-29.06-2.878-17.271-2.878-17.271z"></path><linearGradient id="O" x1="309.746" x2="346.477" y1="694.78" y2="694.78" gradientTransform="matrix(-1 0 0 1 1067.313 0)" gradientUnits="userSpaceOnUse"><stop offset="0" stop-color="#f9a144"></stop><stop offset="1" stop-color="#fde1a7"></stop></linearGradient><path fill="url(#O)" d="M757.565 720.021c-.034-1.406-4.935-10.6-5.894-19.327-1.251-11.374-6.925-23.359-12.063-27.964-6.169-5.527-14.121-8.189-17.546-3.975-2.971 3.656-.046 10.327 3.427 13.707 4.446 4.327 24.83 16.276 21.292 22.847-1.919 3.564-5.421-1.702-7.036-4.203-2.834-4.387-7.612-8.695-10.6-6.763-3.107 2.01-2.104 8.225 4.66 12.153 6.618 3.846 12.505 7.028 15.353 10.236 2.692 3.032.09 2.923 1.553 4.66 1.685 2 6.947 2.376 6.854-1.371z"></path><linearGradient id="P" x1="229.246" x2="281.693" y1="646.25" y2="646.25" gradientTransform="matrix(-1 0 0 1 1067.313 0)" gradientUnits="userSpaceOnUse"><stop offset="0" stop-color="#0090b2"></stop><stop offset="1" stop-color="#00e2ec"></stop></linearGradient><path fill="url(#P)" d="M786.352 719.884c-1.795-1.066-.137-10.692 3.29-15.489 3.427-4.798 9.869-7.128 9.869-10.555 0-3.428-1.696-6.448.274-10.692 1.782-3.838 8.772-2.33 9.047-8.499.274-6.168-2.861-13.771-5.26-27.199-2.143-12.004-.191-16.141 2.93-18.035 3.838-2.33 4.66-7.95 1.781-15.9-2.004-5.534-.865-40.374 11.378-41.26 10.417-.754 14.711 17.805 14.804 27.278.137 13.913-5.232 17.374-3.152 24.536 2.467 8.498 5.849 9.687 6.579 19.054.603 7.718.549 18.23-15.626 37.97-15.308 18.68-25.385 26.698-28.101 30.567-3.336 4.752-4.661 10.098-7.813 8.224z"></path><linearGradient id="Q" x1="283.163" x2="336.956" y1="615.102" y2="615.102" gradientTransform="matrix(-1 0 0 1 1067.313 0)" gradientUnits="userSpaceOnUse"><stop offset="0" stop-color="#f9a144"></stop><stop offset="1" stop-color="#fde1a7"></stop></linearGradient><path fill="url(#Q)" d="M772.918 719.198c0-6.854-3.016-29.06 3.29-40.849 6.306-11.788 9.869-23.851 6.854-37.01s-17.819-38.519-16.723-47.291 5.62-23.577-2.468-52.226c-6.124-21.694-20.022-36.421-29.608-30.431-6.579 4.112-3.563 19.465-.273 25.222 3.289 5.757 9.006 15.804 7.909 21.561s-4.704 6.384-4.399 14.199c.603 15.369 22.123 38.946 27.194 59.919 4.209 17.402 5.758 38.381 1.371 39.203s.298 42.107 2.342 46.345c2.044 4.237 4.511 1.358 4.511 1.358z"></path><linearGradient id="R" x1="242.845" x2="334.998" y1="629.467" y2="629.467" gradientTransform="matrix(-1 0 0 1 1067.313 0)" gradientUnits="userSpaceOnUse"><stop offset="0" stop-color="#fe6a77"></stop><stop offset="1" stop-color="#ff57bd"></stop></linearGradient><path fill="url(#R)" d="M786.17 535.702c-4.112 2.74-4.571 9.32-2.926 13.89 1.645 4.569 3.16 6.677 2.741 9.688-.456 3.288-6.762 4.385-8.772 11.147-2.01 6.763 1.28 20.286 4.752 29.974 3.473 9.688 2.559 16.815-.914 17.363-3.472.549-6.58-4.204-7.677-10.053-1.096-5.848-.571-31.609-16.082-27.05-6.214 1.827-5.758 12.336-1.828 19.739 3.029 5.708 13.25 18.185 18.459 35.091 4.819 15.64 8.61 28.051-.913 29.975-8.134 1.644-12.611-7.494-13.708-13.342-1.097-5.849-4.822-25.967-22.846-22.48-8.498 1.644-3.191 22.282 9.321 33.081 8.531 7.363 19.366 16.533 22.48 29.242 3.381 13.798-1.463 27.963.548 30.704 2.012 2.742 9.87 1.098 9.688-.73-.184-1.827-2.193-5.483 1.646-8.591 3.838-3.106 12.764-7.403 18.824-11.696 6.06-4.292 5.482-10.966 2.375-13.342-3.105-2.376-6.694.614-8.04 2.193-2.652 3.106-8.774 21.978-16.085 16.997-4.652-3.17 2.799-18.698 8.042-25.771 7.858-10.602 25.496-14.622 35.458-27.963 7.021-9.404 2.896-19.952-1.829-21.749-6.488-2.469-12.436 3.409-13.731 9.344-1.737 7.948-5.239 20.58-14.597 13.502-10.876-8.226 5.497-23.716 13.523-32.532 14.896-16.358 22.024-42.038 9.14-46.057-5.737-1.79-10.51 6.212-11.881 15.353-1.572 10.488-9.287 44.051-16.083 40.208-4.204-2.378 5.118-10.417 5.483-17.18s-.549-16.45 2.741-25.04 11.929-31.322 7.31-44.777c-4.202-12.247-12.79-10.358-14.619-9.138z"></path><linearGradient id="S" x1="351.205" x2="373.848" y1="679.873" y2="679.873" gradientTransform="matrix(-1 0 0 1 1067.313 0)" gradientUnits="userSpaceOnUse"><stop offset="0" stop-color="#0090b2"></stop><stop offset="1" stop-color="#00e2ec"></stop></linearGradient><path fill="url(#S)" d="M695.539 671.839c-3.77 1.782-2.467 7.471 4.436 12.522 6.529 4.778 15.895 4.965 16.126 2.456.231-2.51-5.025-2.661-9.321-6.754-4.297-4.093-6.222-10.596-11.241-8.224z"></path><linearGradient id="T" x1="317.907" x2="317.907" y1="283.337" y2="180.885" gradientUnits="userSpaceOnUse"><stop offset="0" stop-color="#994574"></stop><stop offset="1" stop-color="#43256f"></stop></linearGradient><path fill="url(#T)" d="M289.92 180.945c-1.671.752 3.459 10.578 5.094 13.333 1.635 2.755 22.13 22.77 30.042 39.156 7.914 16.386 8.007 38.101 7.439 42.993-.567 4.892 12.112 6.911 12.112 6.911s6.227-27.194-5.763-51.209c-9.854-19.737-30.414-36.604-34.646-40.409-5.014-4.51-12.537-11.559-14.278-10.775z"></path><linearGradient id="U" x1="324.393" x2="339.981" y1="232.447" y2="232.447" gradientUnits="userSpaceOnUse"><stop offset="0" stop-color="#fde1a7"></stop><stop offset="1" stop-color="#f9a144"></stop></linearGradient><path fill="url(#U)" d="M335.476 226.119a76.135 76.135 0 0 1 3.37 6.009c.399.8.775 1.604 1.136 2.41-1.606-.579-10.064.296-12.595 4.246a78.628 78.628 0 0 0-2.33-5.35 50.906 50.906 0 0 0-.664-1.319c1.94-4.157 8.815-6.157 11.083-5.996z"></path><linearGradient id="V" x1="332.478" x2="345.977" y1="276.347" y2="276.347" gradientUnits="userSpaceOnUse"><stop offset="0" stop-color="#fde1a7"></stop><stop offset="1" stop-color="#f9a144"></stop></linearGradient><path fill="url(#V)" d="M345.977 273.007c-.452 6.306-1.369 10.33-1.369 10.33s-12.68-2.019-12.112-6.911c.145-1.245.193-3.635.236-6.678 4.81-1.248 10.06.669 13.245 3.259z"></path><linearGradient id="W" x1="309.332" x2="348.347" y1="301.089" y2="301.089" gradientUnits="userSpaceOnUse"><stop offset="0" stop-color="#994574"></stop><stop offset="1" stop-color="#43256f"></stop></linearGradient><path fill="url(#W)" d="M339.978 276.977c-3.722-1.89-13.101-5.125-21.878 7.439s-11.508 25.203-5.692 33.339c5.815 8.136 18.896 12.369 25.375 6.609 7.72-6.865 12.938-27.614 9.474-38.842-1.673-5.416-6.156-7.975-7.279-8.545z"></path><linearGradient id="X" x1="309.332" x2="335.383" y1="297.394" y2="297.394" gradientUnits="userSpaceOnUse"><stop offset="0" stop-color="#c7a0f6"></stop><stop offset="1" stop-color="#ff57bd"></stop></linearGradient><path fill="url(#X)" d="M318.099 284.416c6.197-8.87 12.69-9.863 17.284-9.017-4.379 1.842-21.033 24.596-21.438 44.234a19.498 19.498 0 0 1-1.539-1.878c-5.815-8.136-3.085-20.775 5.693-33.339z"></path><linearGradient id="Y" x1="202" x2="335" y1="378.667" y2="378.667" gradientUnits="userSpaceOnUse"><stop offset="0" stop-color="#fde1a7"></stop><stop offset="1" stop-color="#f9a144"></stop></linearGradient><path fill="url(#Y)" d="m202 426 133 5.667v-106H202z"></path><path fill="#FFF" d="M297.333 409.167h-.023l-60-1.417a1 1 0 0 1-.977-1v-61.083c0-.267.106-.522.296-.71a1.06 1.06 0 0 1 .712-.29l60 .5a1 1 0 0 1 .992 1v62a.996.996 0 0 1-1 1zm-59-3.394 58 1.37v-59.984l-58-.483v59.097z"></path><linearGradient id="Z" x1="335" x2="363.334" y1="359.334" y2="359.334" gradientUnits="userSpaceOnUse"><stop offset="0" stop-color="#ea8124"></stop><stop offset=".096" stop-color="#de852e"></stop><stop offset=".269" stop-color="#be8e47"></stop><stop offset=".5" stop-color="#8a9d70"></stop><stop offset=".777" stop-color="#43b3a9"></stop><stop offset="1" stop-color="#05c5da"></stop></linearGradient><path fill="url(#Z)" d="M363.333 386 335 431.667v-106L363.333 287z"></path><linearGradient id="aa" x1="252" x2="318.5" y1="275.668" y2="342.167" gradientUnits="userSpaceOnUse"><stop offset="0" stop-color="#00e2ec"></stop><stop offset=".017" stop-color="#07e2ea"></stop><stop offset=".179" stop-color="#48e2d9"></stop><stop offset=".34" stop-color="#80e2ca"></stop><stop offset=".494" stop-color="#ade2be"></stop><stop offset=".64" stop-color="#d1e2b4"></stop><stop offset=".777" stop-color="#eae2ae"></stop><stop offset=".901" stop-color="#fae2a9"></stop><stop offset="1" stop-color="#ffe2a8"></stop></linearGradient><path fill="url(#aa)" d="M363.333 287H248.25L202 325.667h133z"></path><path fill="#FBC881" d="M348.052 412.033a1 1 0 0 1-1-1V307.855a1 1 0 0 1 2 0v103.178a1 1 0 0 1-1 1z"></path><linearGradient id="ab" x1="234.875" x2="234.875" y1="249.551" y2="108.685" gradientUnits="userSpaceOnUse"><stop offset="0" stop-color="#fe6a77"></stop><stop offset="1" stop-color="#ff57bd"></stop></linearGradient><path fill="url(#ab)" d="M160 191.25c.404-5.258 7.333-67.25 46.25-80.5 9.889-3.367 30-2.917 43.833 3.583C272.914 125.061 296.96 143.87 303.5 159c8.5 19.667 6.373 65.31 5.025 68.773-1.75 4.5-13.775 15.352-27.775 18.727-11.153 2.689-50.5 5.25-65.25 0s-57-35.75-55.5-55.25z"></path><linearGradient id="ac" x1="247.306" x2="278.635" y1="179.833" y2="179.833" gradientUnits="userSpaceOnUse"><stop offset="0" stop-color="#fde1a7"></stop><stop offset="1" stop-color="#f9a144"></stop></linearGradient><path fill="url(#ac)" d="M249.694 122.94c3.818 3.189 7.68 6.726 10.759 10.897 3.112 4.145 5.515 8.758 7.399 13.502 3.764 9.523 5.625 19.529 7.071 29.43 1.417 9.93 2.352 19.894 2.979 29.881.6 9.991.939 19.993.593 30.075l-4.741-.2c.426-9.814.184-19.737-.321-29.618-.531-9.885-1.37-19.766-2.677-29.557-1.333-9.776-3.079-19.511-6.57-28.571-1.747-4.515-3.952-8.825-6.788-12.674-2.814-3.879-6.312-7.159-10.092-10.378l2.388-2.787z"></path><path fill="#FDE1A7" d="M273 170.5c-17.132.432-37.5-6.167-40.879-10.442 0 0-2.246 23.567-.121 40.609 7 13.333 27.975 20.711 43.833 19.5 18.542-1.417 31-14.833 33.845-21.657-.408-14.069-2.023-29.894-6.179-39.509-.899-2.082-2.141-4.234-3.655-6.424-1.227 9.428-11.974 17.548-26.844 17.923z"></path><linearGradient id="ad" x1="166.982" x2="245.01" y1="145.113" y2="223.141" gradientUnits="userSpaceOnUse"><stop offset="0" stop-color="#c7a0f6"></stop><stop offset="1" stop-color="#ff57bd"></stop></linearGradient><path fill="url(#ad)" d="M230 237.75c3-4.25 4.065-49.753 3-69-1.167-21.083-8.25-35.875-23.667-42.583-10.124-4.405-23.758-1.402-30.482 7.317-15.133 23.054-18.57 54.111-18.852 57.766-1.5 19.5 40.75 50 55.5 55.25.66.235 1.384.449 2.138.653 5.687-2.412 10.096-6.192 12.363-9.403z"></path><linearGradient id="ae" x1="198.81" x2="258.694" y1="119.533" y2="119.533" gradientUnits="userSpaceOnUse"><stop offset="0" stop-color="#fde1a7"></stop><stop offset="1" stop-color="#f9a144"></stop></linearGradient><path fill="url(#ae)" d="M219.063 119.219c6.44 5.817 19.326 15.212 34.604 10.781 12.479-3.619-1.495-16.498-7.323-18.805-13.195-4.286-29.135-3.278-35.927-2.903-2.132.118-8.885 2.109-11.092 2.896-.527.188-.574 1.625-.467 2.848 2.732-1.403 11.306-2.855 20.205 5.183z"></path><path fill="#FDE1A7" d="M175.5 206.375c.375-6 1.853-46.945 23.375-41.25 14.958 3.958 12.359 33.304 11.75 43.75-.473 8.115-2 21.75-2 21.75l-33.125-24.25z"></path><linearGradient id="af" x1="195.283" x2="211.183" y1="197.609" y2="197.609" gradientUnits="userSpaceOnUse"><stop offset="0" stop-color="#fde1a7"></stop><stop offset="1" stop-color="#f9a144"></stop></linearGradient><path fill="url(#af)" d="M198.875 165.125a15.56 15.56 0 0 0-3.592-.532c12.777 5.908 10.396 33.066 9.815 43.034-.346 5.933-1.254 14.81-1.718 19.159l5.245 3.84s1.527-13.635 2-21.75c.609-10.447 3.208-39.793-11.75-43.751z"></path><linearGradient id="ag" x1="205.169" x2="233.402" y1="185.984" y2="185.984" gradientUnits="userSpaceOnUse"><stop offset="0" stop-color="#fde1a7"></stop><stop offset="1" stop-color="#f9a144"></stop></linearGradient><path fill="url(#ag)" d="M233 168.75c-1.167-21.083-8.25-35.875-23.667-42.583a23.635 23.635 0 0 0-4.164-1.352c15.1 6.8 22.068 21.495 23.223 42.369 1.065 19.247 0 64.75-3 69-2.218 3.142-6.038 7.171-11.312 9.768.497.205.971.389 1.419.548.66.235 1.384.449 2.138.653 5.686-2.412 10.096-6.192 12.362-9.403 3.001-4.25 4.066-49.753 3.001-69z"></path><linearGradient id="ah" x1="199.081" x2="257.274" y1="117.3" y2="117.3" gradientUnits="userSpaceOnUse"><stop offset="0" stop-color="#c7a0f6"></stop><stop offset="1" stop-color="#ff57bd"></stop></linearGradient><path fill="url(#ah)" d="M219.479 115.25c7.308 4.68 17.534 17.056 32.813 12.625 12.479-3.619-1.713-15.901-7.542-18.208-10.083-4.75-29.252-4.838-37.833-1.917a45.237 45.237 0 0 0-7.836 3.544c3.249-1.542 11.761-1.574 20.398 3.956z"></path><ellipse cx="233.959" cy="111.695" fill="#9F36AD" rx="10.042" ry="4.529" transform="rotate(22.089 233.99 111.703)"></ellipse><linearGradient id="ai" x1="159.984" x2="308.957" y1="213.909" y2="213.909" gradientUnits="userSpaceOnUse"><stop offset="0" stop-color="#fde1a7"></stop><stop offset="1" stop-color="#f9a144"></stop></linearGradient><path fill="url(#ai)" d="M308.957 225.408c-.124.109-.25.215-.373.325l-1.1 1-.53.493a6.465 6.465 0 0 1-.425.359c-1.238.946-2.934 1.667-4.647 2.255-3.475 1.165-7.208 1.894-10.947 2.485a183.91 183.91 0 0 1-11.347 1.361c-3.806.344-7.627.586-11.453.771-3.824.208-7.654.348-11.485.423-7.648.103-15.357.18-22.879-.352-1.876-.15-3.708-.313-5.365-.689-1.732-.365-3.477-.896-5.207-1.512-3.463-1.245-6.869-2.846-10.205-4.605-6.683-3.521-13.109-7.669-19.373-12.044a254.356 254.356 0 0 1-18.217-13.978c-2.938-2.454-5.84-4.955-8.618-7.567a92.042 92.042 0 0 1-4.036-4.012c-.807-.863-1.629-1.765-2.327-2.667a78.506 78.506 0 0 0-.423 3.795c-.009.122-.009.246-.016.369.15.186.298.374.451.557a94.923 94.923 0 0 0 3.956 4.372 177.747 177.747 0 0 0 8.385 8.164 258.514 258.514 0 0 0 18.041 14.847c6.26 4.655 12.767 9.016 19.693 12.807 3.475 1.875 7.057 3.61 10.85 5.017 1.899.697 3.851 1.316 5.893 1.769 2.115.468 4.145.632 6.114.79 7.89.52 15.647.517 23.434.222 3.889-.145 7.774-.354 11.657-.633 3.881-.306 7.759-.691 11.632-1.17 3.873-.483 7.743-1.049 11.596-1.826 3.853-.784 7.699-1.693 11.497-3.147a41.284 41.284 0 0 0 1.726-.733c1.87-1.916 3.136-3.64 3.618-4.88.138-.359.286-1.177.43-2.366z"></path><ellipse cx="189.432" cy="199.989" fill="#9F36AD" rx="12.746" ry="7.158" transform="rotate(98.413 189.439 200.002)"></ellipse><path fill="#C7A0F6" d="M307.051 185.112c0-8.237-4.947-12.167-11.667-12.167-2.699 0-5.185.89-7.202 2.377l-.01-.008s-4.29 3.804-14.343 4.186c-10.26.39-16.626-2.383-18.944-3.629a12.107 12.107 0 0 0-.95-.552l-.056-.037-.009.006a12.104 12.104 0 0 0-5.538-1.342c-6.719 0-12.167 5.447-12.167 12.167 0 1.658.334 3.236.935 4.676l-.001.003c.775 2.958 11.833 22.053 36.65 22.125 22.615.066 33.302-19.667 33.302-27.805z"></path><path fill="#212F66" d="m248.24 192-2.884-2.771a12.233 12.233 0 0 1 8.894-3.789c2.805 0 5.448.918 7.644 2.654l-2.48 3.138a8.25 8.25 0 0 0-5.164-1.792 8.257 8.257 0 0 0-6.01 2.56zM286.929 189.705l-2.884-2.771a12.233 12.233 0 0 1 8.894-3.789c2.805 0 5.448.918 7.644 2.654l-2.48 3.138a8.25 8.25 0 0 0-5.164-1.792 8.267 8.267 0 0 0-6.01 2.56z"></path><path fill="#9F36AD" d="M273.531 206.75c-4.646 0-8.82-2.803-10.15-6.815l1.898-.629c1.063 3.206 4.456 5.444 8.252 5.444 3.972 0 7.404-2.369 8.348-5.76l1.927.536c-1.183 4.253-5.409 7.224-10.275 7.224z"></path><path fill="#C7A0F6" d="m233.898 71.672 35.159-10.289 1.178 4.859-35.966 6.961z"></path><path fill="#C7A0F6" d="m233.86 73.119-31.806-8.556 1.559-4.751 30.694 11.944z"></path><path fill="#C7A0F6" d="m234.36 73.314-35.774 12.945-1.505-4.768 36.726-9.93z"></path><path fill="#C7A0F6" d="m234.426 71.655 32.659 12.492-2.003 4.581-31.341-15.508z"></path><linearGradient id="aj" x1="231.5" x2="236.667" y1="92.165" y2="92.165" gradientUnits="userSpaceOnUse"><stop offset="0" stop-color="#fde1a7"></stop><stop offset="1" stop-color="#f9a144"></stop></linearGradient><path fill="url(#aj)" d="M236.667 71.265H231.5v40.568h.005c0 .008-.005.016-.005.024 0 .667 1.157 1.208 2.583 1.208s2.583-.541 2.583-1.208c0-.008-.005-.016-.005-.024h.005V71.265z"></path><ellipse cx="234.083" cy="72.438" fill="#FF58B8" rx="6.625" ry="3.313"></ellipse><ellipse cx="234.083" cy="69.633" fill="#9F36AD" rx="3.721" ry="3.117"></ellipse><linearGradient id="ak" x1="203.625" x2="264.793" y1="45.166" y2="106.334" gradientUnits="userSpaceOnUse"><stop offset="0" stop-color="#9f36ad"></stop><stop offset="1" stop-color="#43256f"></stop></linearGradient><path fill="url(#ak)" d="M234.208 56.75c-32.102 0-58.125 8.507-58.125 19s26.023 19 58.125 19 58.125-8.507 58.125-19-26.023-19-58.125-19zm.267 29.25c-24.43 0-44.234-5.429-44.234-12.125s19.804-12.125 44.234-12.125 44.234 5.429 44.234 12.125S258.904 86 234.475 86z"></path><path fill="#F9A449" d="M263.899 82.928c-.03-.015-1.519.386-1.535.356-1.856.414-3.84.786-5.928 1.114.144.125.301.239.475.335-.059-.05.057.002.105.022a3.89 3.89 0 0 1 .628.371 4.413 4.413 0 0 1 1.717 2.618c.361 1.514.017 3.427-.709 5.244 1.158-.176 4.805-.834 5.92-1.034 1.209-.766 3.209-7.141-.673-9.026zM203.424 91.394c-.728-1.818-1.073-3.733-.711-5.249a4.408 4.408 0 0 1 1.717-2.618c.138-.1.281-.191.423-.269.07-.039.141-.074.205-.102.048-.02.164-.072.105-.022.071-.039.13-.091.196-.135-1.999-.48-6.459-2.009-6.588-1.965-4.24 1.435-2.427 8.373-1.465 9.396 1.096.26 5.064 1.22 6.216 1.455a1.345 1.345 0 0 0-.092-.475l-.006-.016zM204.437 64.975c1.583-.365 5.537-1.2 7.298-1.502 0 0-1.651-4.223-5.44-4.39-2.597.465-6.629 1.396-8.965 1.981 4.649-.606 7.067 3.836 7.107 3.911zM260.271 64.024c1.708.379 7.281 1.839 8.766 2.283.016-.077 1.485-3.911 6.767-3.823-2.909-.975-6.133-1.847-9.622-2.6-3.994.116-5.869 4.012-5.911 4.14z"></path><path fill="#0FF" d="M275.963 99.322c4.357-1.37 8.669-2.744 12.894-4.291 4.219-1.546 8.361-3.247 12.259-5.273 1.936-1.033 3.84-2.094 5.584-3.325 1.743-1.225 3.344-2.584 4.69-4.034 1.329-1.462 2.399-3.023 2.872-4.723.132-.409.226-.885.28-1.273l.05-.704c.012-.228.017-.458.006-.691-.041-.93-.223-1.902-.523-2.907l-.015-.05a1.289 1.289 0 0 1 2.234-1.181 9.908 9.908 0 0 1 1.836 3.467c.099.326.18.659.249.997.069.315.106.763.135 1 .054.75.042 1.412-.033 2.12-.355 2.803-1.742 5.28-3.424 7.199-1.683 1.953-3.679 3.445-5.712 4.748a46.474 46.474 0 0 1-6.308 3.355c-4.314 1.901-8.763 3.291-13.259 4.354a95.306 95.306 0 0 1-13.617 2.191.503.503 0 0 1-.547-.455.505.505 0 0 1 .349-.524zM166.671 90.199c.468 1.468 1.283 2.51 2.397 3.426 1.102.908 2.457 1.615 3.889 2.231 2.892 1.2 6.09 2.025 9.331 2.72 3.246.726 6.577 1.242 9.93 1.688l10.127 1.237a.503.503 0 0 1-.023 1c-3.419.271-6.849.375-10.289.313-3.441-.05-6.894-.245-10.363-.677-3.454-.494-6.949-1.23-10.285-2.823-1.659-.793-3.291-1.837-4.637-3.309a9.079 9.079 0 0 1-1.651-2.532 7.476 7.476 0 0 1-.459-1.458 6.652 6.652 0 0 1-.142-1.461l.002-.056a1.114 1.114 0 0 1 2.173-.299zM213.215 42.489a330.391 330.391 0 0 0-16.235 3.081c-2.68.591-5.341 1.249-7.979 1.96a133.495 133.495 0 0 0-7.837 2.315c-5.163 1.672-10.184 3.711-14.847 6.214-4.635 2.517-8.977 5.526-12.06 9.476l-.02.025a2.132 2.132 0 0 1-2.991.368 2.14 2.14 0 0 1-.503-2.797c1.595-2.587 3.685-4.797 5.965-6.66 2.289-1.863 4.767-3.414 7.325-4.735 5.124-2.647 10.538-4.421 15.971-5.858a134.358 134.358 0 0 1 8.214-1.817c2.752-.503 5.514-.915 8.278-1.274 5.524-.728 11.077-1.132 16.621-1.292a.502.502 0 0 1 .518.484.504.504 0 0 1-.42.51z"></path><linearGradient id="al" x1="173.465" x2="173.465" y1="309.875" y2="195.829" gradientUnits="userSpaceOnUse"><stop offset="0" stop-color="#994574"></stop><stop offset="1" stop-color="#43256f"></stop></linearGradient><path fill="url(#al)" d="M188.667 195.833c1.82.22 2.239 10.382 1.5 13.5s-14.333 28.333-17 46.333 1.333 39.5 3.333 44-9.5 10.208-9.5 10.208-14.053-24.1-9.77-50.598c3.52-21.777 18.114-44.008 21.02-48.902 3.443-5.798 8.521-14.77 10.417-14.541z"></path><linearGradient id="am" x1="156.865" x2="173.407" y1="257.07" y2="257.07" gradientUnits="userSpaceOnUse"><stop offset="0" stop-color="#fde1a7"></stop><stop offset="1" stop-color="#f9a144"></stop></linearGradient><path fill="url(#am)" d="M163.696 252.228a34.405 34.405 0 0 0-5.042.31 75.63 75.63 0 0 0-1.425 6.74 60.98 60.98 0 0 0-.365 2.639 24.816 24.816 0 0 1 1.742-.618 26.984 26.984 0 0 1 5.345-1.08c3.075-.298 6.098.036 8.587 1.249a79.32 79.32 0 0 1 .628-5.801c.071-.48.154-.968.24-1.458a20.573 20.573 0 0 0-2.434-.918c-2.414-.721-4.869-1.027-7.276-1.063z"></path><linearGradient id="an" x1="162.613" x2="176.733" y1="301.57" y2="301.57" gradientUnits="userSpaceOnUse"><stop offset="0" stop-color="#fde1a7"></stop><stop offset="1" stop-color="#f9a144"></stop></linearGradient><path fill="url(#an)" d="M162.613 300.424c2.312 5.884 4.387 9.451 4.387 9.451s11.5-5.708 9.5-10.208c-.509-1.145-1.147-3.394-1.771-6.401-4.963.959-9.495 4.413-12.116 7.158z"></path><linearGradient id="ao" x1="165.125" x2="208.789" y1="322.889" y2="322.889" gradientUnits="userSpaceOnUse"><stop offset="0" stop-color="#ff57bd"></stop><stop offset="1" stop-color="#fe6a77"></stop></linearGradient><path fill="url(#ao)" d="M169.523 302.423c2.989-2.914 10.977-8.798 23.102.577s18.5 20.625 15.375 30.125-14.348 17.441-22.25 13.875c-9.417-4.25-20.583-22.5-20.625-34.25-.02-5.668 3.496-9.447 4.398-10.327z"></path><linearGradient id="ap" x1="177.247" x2="195.638" y1="318.368" y2="318.368" gradientUnits="userSpaceOnUse"><stop offset="0" stop-color="#fde1a7"></stop><stop offset="1" stop-color="#f9a144"></stop></linearGradient><path fill="url(#ap)" d="M188.083 307.667c-2.417 1.25-10.708 11.75-10.833 15.75-.107 3.416 2.68 6.092 4.763 5.592s9.987-12.134 13.321-14.425c2.088-1.436-7.251-6.917-7.251-6.917z"></path><linearGradient id="aq" x1="209.028" x2="225.377" y1="319.424" y2="319.424" gradientUnits="userSpaceOnUse"><stop offset="0" stop-color="#ff57bd"></stop><stop offset="1" stop-color="#fe6a77"></stop></linearGradient><path fill="url(#aq)" d="M209.688 316.313c-.688 1.063-1.125 8.063.188 9.063s4.894-1.646 7.875-2.25c3.292-.667 6.189-.55 7.063-1.4s1.309-6.701-3.19-8.088-11.041 1.29-11.936 2.675z"></path><linearGradient id="ar" x1="200.935" x2="220.938" y1="348.245" y2="348.245" gradientUnits="userSpaceOnUse"><stop offset="0" stop-color="#ff57bd"></stop><stop offset="1" stop-color="#fe6a77"></stop></linearGradient><path fill="url(#ar)" d="M210.063 338.188c2.006-.617 10.827 8.141 10.875 10.25.063 2.75-5.187 9.896-9.604 9.896s-10.146-7.708-10.396-10.021c-.18-1.657 8.041-9.792 9.125-10.125z"></path><linearGradient id="as" x1="185.377" x2="202.638" y1="357.789" y2="357.789" gradientUnits="userSpaceOnUse"><stop offset="0" stop-color="#ff57bd"></stop><stop offset="1" stop-color="#fe6a77"></stop></linearGradient><path fill="url(#as)" d="M185.5 353.25c.481-1.114 9-3.75 10.25-2.625s7.195 7.063 6.875 9.625c-.25 2-4.313 5.813-7.438 4.813S184.313 356 185.5 353.25z"></path><linearGradient id="at" x1="209.091" x2="225.375" y1="319.647" y2="319.647" gradientUnits="userSpaceOnUse"><stop offset="0" stop-color="#43256f"></stop><stop offset="1" stop-color="#994574"></stop></linearGradient><path fill="url(#at)" d="M221.768 313.694c1.097 2.196.721 4.93.145 5.491-.874.85-3.771.733-7.063 1.4-1.928.39-4.104 1.631-5.758 2.191.103 1.24.343 2.262.784 2.598 1.313 1 4.894-1.646 7.875-2.25 3.292-.667 6.189-.55 7.063-1.4.863-.839 1.29-6.558-3.046-8.03z"></path><linearGradient id="au" x1="200.935" x2="220.938" y1="344.435" y2="344.435" gradientUnits="userSpaceOnUse"><stop offset="0" stop-color="#43256f"></stop><stop offset="1" stop-color="#994574"></stop></linearGradient><path fill="url(#au)" d="M209.592 341.079c1.851-.569 9.485 6.829 10.697 9.636.417-.884.662-1.686.648-2.277-.048-2.109-8.869-10.867-10.875-10.25-1.083.333-9.304 8.468-9.125 10.125.033.302.163.699.367 1.155 2.084-2.954 7.428-8.125 8.288-8.389z"></path><linearGradient id="av" x1="185.385" x2="202.638" y1="356.842" y2="356.842" gradientUnits="userSpaceOnUse"><stop offset="0" stop-color="#43256f"></stop><stop offset="1" stop-color="#994574"></stop></linearGradient><path fill="url(#av)" d="M195.75 350.625c-1.25-1.125-9.769 1.511-10.25 2.625-.186.43-.133.999.066 1.64 2.74-1.099 7.259-2.188 8.144-1.391 1.25 1.125 7.195 7.063 6.875 9.625-.008.066-.031.138-.047.208 1.154-1.009 1.979-2.215 2.088-3.082.319-2.562-5.626-8.5-6.876-9.625z"></path><linearGradient id="aw" x1="173.438" x2="208.789" y1="316.643" y2="316.643" gradientUnits="userSpaceOnUse"><stop offset="0" stop-color="#43256f"></stop><stop offset="1" stop-color="#994574"></stop></linearGradient><path fill="url(#aw)" d="M192.625 303c-8.56-6.619-15.054-5.63-19.187-3.452 4.729.452 27.411 17.205 33.653 35.829.35-.738.658-1.489.909-2.251 3.125-9.501-3.25-20.751-15.375-30.126z"></path></svg>