<svg xmlns="http://www.w3.org/2000/svg" xmlns:xlink="http://www.w3.org/1999/xlink" enable-background="new 0 0 1500 1500" viewBox="0 0 1500 1500" id="buy-photography-gear-online"><path fill="#006b27" d="M581.8,1356.5c0,0-36.5-80.7,22.9-136.8s70-51.3,92.1-96.9s41.9-96.3,84.5-107.7c42.7-11.4,80.3,6.1,113.1,3.2
		c40.8-3.6,52.2-30.4,107.8-40.8c53.7-10,91.4,31,114.2,75.1c22.9,44.1,9.1,45.4,74.5,60.1c65.5,14.7,83.7,62.6,88.8,107.1
		c4.9,42.9,77.2,23.7,42.1,136.8L581.8,1356.5L581.8,1356.5z"></path><line x1="1046.8" x2="963.6" y1="1008.4" y2="1356.5" fill="none" stroke="#fff" stroke-miterlimit="10" stroke-width="1.896"></line><line x1="1205.7" x2="1001" y1="1158.2" y2="1356.5" fill="none" stroke="#fff" stroke-miterlimit="10" stroke-width="1.896"></line><line x1="1301.4" x2="1037.1" y1="1285.8" y2="1356.5" fill="none" stroke="#fff" stroke-miterlimit="10" stroke-width="1.896"></line><line x1="783" x2="936.1" y1="1049.4" y2="1356.5" fill="none" stroke="#fff" stroke-miterlimit="10" stroke-width="1.896"></line><line x1="643.1" x2="899.5" y1="1237.6" y2="1356.5" fill="none" stroke="#fff" stroke-miterlimit="10" stroke-width="1.896"></line><path fill="#ffc000" d="M1244.8,402.4h-197.3c-11.1,0-20,8.9-20,20v115c0,4.2-2.2,8.2-5.8,10.4l-67.6,42h61c6.8,0,12.3,5.5,12.3,12.3
	v48.9c0,11.1,8.9,20,20,20h197.2c11.1,0,20-8.9,20-20V422.5C1264.8,411.4,1255.8,402.4,1244.8,402.4z"></path><circle cx="1263.5" cy="677.8" r="62.2" fill="#006ad3"></circle><path fill="#fff" d="M1250.9 684.2c0 4.7-3.8 7.4-11.1 7.4h-14.6v-26.9h13.8c7.1 0 10.5 2.9 10.5 7.1 0 2.6-1.3 4.7-3.6 5.8C1249 678.6 1250.9 680.9 1250.9 684.2zM1232.8 670.1v5.2h5.2c2.5 0 3.8-.9 3.8-2.6 0-1.7-1.3-2.6-3.8-2.6H1232.8zM1243.2 683.3c0-1.9-1.4-2.7-4-2.7h-6.4v5.5h6.4C1241.8 686 1243.2 685.2 1243.2 683.3zM1254.3 679.6v-14.9h7.6v14.7c0 4.6 1.9 6.5 5.1 6.5 3.1 0 5.1-1.9 5.1-6.5v-14.7h7.5v14.9c0 8-4.7 12.5-12.7 12.5C1259 692.1 1254.3 687.6 1254.3 679.6zM1298.4 681.9v9.7h-7.6v-9.8l-10.3-17.2h8l6.4 10.7 6.4-10.7h7.4L1298.4 681.9z"></path><circle cx="987.9" cy="332.8" r="48.5" fill="#ffc000"></circle><path fill="#ffc000" d="M1500,650.5c-45,11-54,20-65,65c-11-45-20-54-65-65c45-11,54-20,65-65C1446,630.5,1455,639.5,1500,650.5z"></path><g><path fill="#2e3744" d="M1189.5,493.8h-61.2l3.9-14.9c1.1-4.2,4.9-7.2,9.3-7.2h34.9c4.4,0,8.2,3,9.3,7.2L1189.5,493.8z"></path><path fill="#006ad3" d="M1213.3,595.3h-139.9c-4.6,0-8.3-3.7-8.3-8.3v-88.5c0-4.6,3.7-8.3,8.3-8.3h139.9c4.6,0,8.3,3.7,8.3,8.3v88.5
		C1221.7,591.6,1218,595.3,1213.3,595.3z"></path><path fill="#fff" d="M1211.2,490.2h-135.7c-5.8,0-10.5,4.7-10.5,10.5v16.2h156.6v-16.2C1221.7,494.8,1217,490.2,1211.2,490.2z"></path><circle cx="1158.9" cy="543.7" r="40.2" fill="#2e3744"></circle><circle cx="1158.9" cy="543.7" r="19.7" fill="#fff"></circle><line x1="1099.6" x2="1099.6" y1="495.2" y2="583.9" fill="none" stroke="#002d7d" stroke-miterlimit="10" stroke-width=".798"></line></g><g><path fill="#202482" d="M783.1,1356.5H275.8c-24.8,0-45-20.1-45-45V212.3c0-24.8,20.1-45,45-45h507.3c24.8,0,45,20.1,45,45v1099.2
		C828.1,1336.3,808,1356.5,783.1,1356.5z"></path><path fill="#006ad3" d="M829.1,1356.5H321.8c-24.8,0-45-20.1-45-45V212.3c0-24.8,20.1-45,45-45h507.3c24.8,0,45,20.1,45,45v1099.2
		C874.1,1336.3,853.9,1356.5,829.1,1356.5z"></path><path fill="#2e3744" d="M622.9 210.4h-94.8c-3.6 0-6.5-2.9-6.5-6.5l0 0c0-3.6 2.9-6.5 6.5-6.5h94.8c3.6 0 6.5 2.9 6.5 6.5l0 0C629.3 207.5 626.4 210.4 622.9 210.4zM512.1 203.9c0 5-4.1 9.1-9.1 9.1-5 0-9.1-4.1-9.1-9.1s4.1-9.1 9.1-9.1C508 194.8 512.1 198.9 512.1 203.9z"></path><path fill="#006ad3" d="M253.7,646.9L253.7,646.9c-5.4,0-9.7-4.4-9.7-9.7V503.9c0-5.4,4.4-9.7,9.7-9.7l0,0c5.4,0,9.7,4.4,9.7,9.7
		v133.3C263.4,642.6,259,646.9,253.7,646.9z"></path><g><defs><path id="a" d="M785.8,185.6h-75.4c-11,0-20.5,7.6-23.1,18.3l-0.4,1.6c-2.8,11.8-13.3,20.1-25.4,20.1H489.4
					c-12.1,0-22.6-8.3-25.4-20.1l-0.4-1.6c-2.5-10.7-12.1-18.3-23.1-18.3h-75.4c-36.3,0-65.7,29.4-65.7,65.7v1021.1
					c0,36.3,29.4,65.7,65.7,65.7h420.7c36.3,0,65.7-29.4,65.7-65.7V251.4C851.6,215.1,822.1,185.6,785.8,185.6z"></path></defs><clipPath id="b"><use overflow="visible" xlink:href="#a"></use></clipPath><path fill="#fff" d="M785.8,185.6h-75.4c-11,0-20.5,7.6-23.1,18.3l-0.4,1.6c-2.8,11.8-13.3,20.1-25.4,20.1H489.4
				c-12.1,0-22.6-8.3-25.4-20.1l-0.4-1.6c-2.5-10.7-12.1-18.3-23.1-18.3h-75.4c-36.3,0-65.7,29.4-65.7,65.7v1021.1
				c0,36.3,29.4,65.7,65.7,65.7h420.7c36.3,0,65.7-29.4,65.7-65.7V251.4C851.6,215.1,822.1,185.6,785.8,185.6z" clip-path="url(#b)"></path><defs><path id="c" d="M785.8,185.6h-75.4c-11,0-20.5,7.6-23.1,18.3l-0.4,1.6c-2.8,11.8-13.3,20.1-25.4,20.1H489.4
					c-12.1,0-22.6-8.3-25.4-20.1l-0.4-1.6c-2.5-10.7-12.1-18.3-23.1-18.3h-75.4c-36.3,0-65.7,29.4-65.7,65.7v1021.1
					c0,36.3,29.4,65.7,65.7,65.7h420.7c36.3,0,65.7-29.4,65.7-65.7V251.4C851.6,215.1,822.1,185.6,785.8,185.6z"></path></defs><clipPath id="d"><use overflow="visible" xlink:href="#c"></use></clipPath><g clip-path="url(#d)"><path fill="#ff4f4b" d="M345.4,419.5L345.4,419.5c-25.4,0-46-20.6-46-46V181.2h92v192.3C391.4,398.9,370.8,419.5,345.4,419.5z"></path><path fill="#ff7f72" d="M437.4,419.5L437.4,419.5c-25.4,0-46-20.6-46-46V181.2h92v192.3C483.4,398.9,462.8,419.5,437.4,419.5z"></path><path fill="#ff4f4b" d="M529.4,419.5L529.4,419.5c-25.4,0-46-20.6-46-46V181.2h92v192.3C575.5,398.9,554.8,419.5,529.4,419.5z"></path><path fill="#ff7f72" d="M621.5,419.5L621.5,419.5c-25.4,0-46-20.6-46-46V181.2h92v192.3C667.5,398.9,646.9,419.5,621.5,419.5z"></path><path fill="#ff4f4b" d="M713.5,419.5L713.5,419.5c-25.4,0-46-20.6-46-46V181.2h92v192.3C759.5,398.9,738.9,419.5,713.5,419.5z"></path><path fill="#ff7f72" d="M805.5,419.5L805.5,419.5c-25.4,0-46-20.6-46-46V181.2h92v192.3C851.6,398.9,830.9,419.5,805.5,419.5z"></path></g><defs><path id="e" d="M785.8,185.6h-75.4c-11,0-20.5,7.6-23.1,18.3l-0.4,1.6c-2.8,11.8-13.3,20.1-25.4,20.1H489.4
					c-12.1,0-22.6-8.3-25.4-20.1l-0.4-1.6c-2.5-10.7-12.1-18.3-23.1-18.3h-75.4c-36.3,0-65.7,29.4-65.7,65.7v1021.1
					c0,36.3,29.4,65.7,65.7,65.7h420.7c36.3,0,65.7-29.4,65.7-65.7V251.4C851.6,215.1,822.1,185.6,785.8,185.6z"></path></defs><clipPath id="f"><use overflow="visible" xlink:href="#e"></use></clipPath><g clip-path="url(#f)"><path fill="#006ad3" d="M525.9,687.7H379.8c-9.4,0-17-7.6-17-17V524.5c0-9.4,7.6-17,17-17h146.2c9.4,0,17,7.6,17,17v146.2
						C543,680.1,535.3,687.7,525.9,687.7z"></path><path fill="#2e3744" d="M473.7,570.5H432l2.7-10.1c0.8-2.9,3.3-4.9,6.3-4.9h23.8c3,0,5.6,2,6.3,4.9L473.7,570.5z"></path><path fill="#fff" d="M498.1,639.6h-90.4c-4.5,0-8.1-3.6-8.1-8.1v-55.4c0-4.5,3.6-8.1,8.1-8.1h90.4c4.5,0,8.1,3.6,8.1,8.1v55.4
							C506.2,636,502.6,639.6,498.1,639.6z"></path><path fill="none" stroke="#0059e2" stroke-miterlimit="10" stroke-width=".948" d="M480.3,604.5c0,15.1-12.2,27.4-27.4,27.4s-27.4-12.2-27.4-27.4s12.2-27.4,27.4-27.4
							S480.3,589.4,480.3,604.5z"></path><path fill="#2e3744" d="M466.3,604.5c0,7.4-6,13.4-13.4,13.4c-7.4,0-13.4-6-13.4-13.4s6-13.4,13.4-13.4
							C460.3,591.1,466.3,597.1,466.3,604.5z"></path><rect width="148.7" height="12.7" x="571.9" y="541.6" fill="#c2dbff"></rect><rect width="148.7" height="12.7" x="571.9" y="571.6" fill="#c2dbff"></rect><rect width="148.7" height="12.7" x="571.9" y="601.6" fill="#c2dbff"></rect><path fill="#006ad3" d="M715.9,687.7H593.7c-12.1,0-21.9-9.8-21.9-21.9l0,0c0-12.1,9.8-21.9,21.9-21.9h122.2
						c12.1,0,21.9,9.8,21.9,21.9l0,0C737.7,677.9,728,687.7,715.9,687.7z"></path><path fill="#fff" d="M631.1 675.3l0-12.5-6.2 10.4h-1.6l-6.2-10.2v12.3h-3.3v-18.8h2.9l7.5 12.5 7.4-12.5h2.9l0 18.8L631.1 675.3 631.1 675.3zM638.1 665.8c0-5.6 4.3-9.7 10.2-9.7 5.8 0 10.2 4.1 10.2 9.7 0 5.6-4.3 9.7-10.2 9.7C642.4 675.5 638.1 671.4 638.1 665.8zM654.9 665.8c0-3.8-2.8-6.6-6.6-6.6s-6.6 2.8-6.6 6.6c0 3.9 2.8 6.6 6.6 6.6S654.9 669.7 654.9 665.8zM674.4 675.3l-3.9-5.5c-.2 0-.5 0-.7 0h-4.2v5.5h-3.5v-18.8h7.7c5 0 8 2.5 8 6.7 0 2.8-1.4 5-4 6l4.3 6.2H674.4zM669.6 659.4h-4.1v7.5h4.1c3.1 0 4.7-1.4 4.7-3.8C674.3 660.7 672.7 659.4 669.6 659.4zM695.8 672.3v2.9h-14.1v-18.8h13.8v2.9h-10.2v4.9h9.1v2.9h-9.1v5.2L695.8 672.3 695.8 672.3z"></path><path fill="#006ad3" d="M525.9,927.5H379.8c-9.4,0-17-7.6-17-17V764.4c0-9.4,7.6-17,17-17h146.2c9.4,0,17,7.6,17,17v146.2
					C543,919.9,535.3,927.5,525.9,927.5z"></path><rect width="148.7" height="12.7" x="571.9" y="781.4" fill="#c2dbff"></rect><rect width="148.7" height="12.7" x="571.9" y="811.5" fill="#c2dbff"></rect><rect width="148.7" height="12.7" x="571.9" y="841.5" fill="#c2dbff"></rect><path fill="#006ad3" d="M715.9,927.5H593.7c-12.1,0-21.9-9.8-21.9-21.9l0,0c0-12.1,9.8-21.9,21.9-21.9h122.2
					c12.1,0,21.9,9.8,21.9,21.9l0,0C737.7,917.8,728,927.5,715.9,927.5z"></path><g><path fill="#fff" d="M631.1 915.1l0-12.5-6.2 10.4h-1.6l-6.2-10.2v12.3h-3.3v-18.8h2.9l7.5 12.5 7.4-12.5h2.9l0 18.8L631.1 915.1 631.1 915.1zM638.1 905.7c0-5.6 4.3-9.7 10.2-9.7 5.8 0 10.2 4.1 10.2 9.7 0 5.6-4.3 9.7-10.2 9.7C642.4 915.4 638.1 911.2 638.1 905.7zM654.9 905.7c0-3.8-2.8-6.6-6.6-6.6s-6.6 2.8-6.6 6.6c0 3.9 2.8 6.6 6.6 6.6S654.9 909.5 654.9 905.7zM674.4 915.1l-3.9-5.5c-.2 0-.5 0-.7 0h-4.2v5.5h-3.5v-18.8h7.7c5 0 8 2.5 8 6.7 0 2.8-1.4 5-4 6l4.3 6.2L674.4 915.1 674.4 915.1zM669.6 899.2h-4.1v7.5h4.1c3.1 0 4.7-1.4 4.7-3.8C674.3 900.6 672.7 899.2 669.6 899.2zM695.8 912.2v2.9h-14.1v-18.8h13.8v2.9h-10.2v4.9h9.1v2.9h-9.1v5.2L695.8 912.2 695.8 912.2z"></path></g><path fill="#006ad3" d="M525.9,1167.4H379.8c-9.4,0-17-7.6-17-17v-146.2c0-9.4,7.6-17,17-17h146.2c9.4,0,17,7.6,17,17v146.2
					C543,1159.8,535.3,1167.4,525.9,1167.4z"></path><rect width="148.7" height="12.7" x="571.9" y="1021.3" fill="#c2dbff"></rect><rect width="148.7" height="12.7" x="571.9" y="1051.3" fill="#c2dbff"></rect><rect width="148.7" height="12.7" x="571.9" y="1081.3" fill="#c2dbff"></rect><path fill="#006ad3" d="M715.9,1167.4H593.7c-12.1,0-21.9-9.8-21.9-21.9l0,0c0-12.1,9.8-21.9,21.9-21.9h122.2
					c12.1,0,21.9,9.8,21.9,21.9l0,0C737.7,1157.6,728,1167.4,715.9,1167.4z"></path><g><path fill="#fff" d="M631.1 1155l0-12.5-6.2 10.4h-1.6l-6.2-10.2v12.3h-3.3v-18.8h2.9l7.5 12.5 7.4-12.5h2.9l0 18.8L631.1 1155 631.1 1155zM638.1 1145.6c0-5.6 4.3-9.7 10.2-9.7 5.8 0 10.2 4.1 10.2 9.7 0 5.6-4.3 9.7-10.2 9.7C642.4 1155.2 638.1 1151.1 638.1 1145.6zM654.9 1145.6c0-3.8-2.8-6.6-6.6-6.6s-6.6 2.8-6.6 6.6 2.8 6.6 6.6 6.6C652 1152.2 654.9 1149.4 654.9 1145.6zM674.4 1155l-3.9-5.5c-.2 0-.5 0-.7 0h-4.2v5.5h-3.5v-18.8h7.7c5 0 8 2.5 8 6.7 0 2.8-1.4 5-4 6l4.3 6.2L674.4 1155 674.4 1155zM669.6 1139.1h-4.1v7.5h4.1c3.1 0 4.7-1.4 4.7-3.8C674.3 1140.5 672.7 1139.1 669.6 1139.1zM695.8 1152v2.9h-14.1v-18.8h13.8v2.9h-10.2v4.9h9.1v2.9h-9.1v5.2L695.8 1152 695.8 1152z"></path></g><g><path fill="#2e3744" d="M416.1,842v40.9c0,7.7,16.5,13.9,36.8,13.9c20.3,0,36.8-6.2,36.8-13.9V842H416.1z"></path><path fill="#fff" d="M409.9,794.3v47.8c0,8.9,19.3,16.2,43,16.2c23.7,0,43-7.2,43-16.2v-47.8H409.9z"></path><path fill="#2e3744" d="M495.9,794.3c0,8.9-19.3,16.2-43,16.2c-23.7,0-43-7.2-43-16.2c0-8.9,19.3-16.2,43-16.2
						C476.6,778.1,495.9,785.3,495.9,794.3z"></path><path fill="none" stroke="#fff" stroke-miterlimit="10" stroke-width=".771" d="M489.7,794.3c0,6.8-16.5,12.3-36.8,12.3c-20.3,0-36.8-5.5-36.8-12.3c0-6.8,16.5-12.3,36.8-12.3
						C473.2,782,489.7,787.5,489.7,794.3z"></path></g><g><path fill="#2e3744" d="M473.7,1050.2H432l2.7-10.1c0.8-2.9,3.3-4.9,6.3-4.9h23.8c3,0,5.6,2,6.3,4.9L473.7,1050.2z"></path><path fill="#fff" d="M498.1,1119.4h-90.4c-4.5,0-8.1-3.6-8.1-8.1v-55.4c0-4.5,3.6-8.1,8.1-8.1h90.4c4.5,0,8.1,3.6,8.1,8.1v55.4
						C506.2,1115.7,502.6,1119.4,498.1,1119.4z"></path><path fill="none" stroke="#0059e2" stroke-miterlimit="10" stroke-width=".948" d="M480.3,1084.2c0,15.1-12.2,27.4-27.4,27.4s-27.4-12.2-27.4-27.4c0-15.1,12.2-27.4,27.4-27.4
						S480.3,1069.1,480.3,1084.2z"></path><path fill="#2e3744" d="M466.3,1084.2c0,7.4-6,13.4-13.4,13.4c-7.4,0-13.4-6-13.4-13.4s6-13.4,13.4-13.4
						C460.3,1070.8,466.3,1076.8,466.3,1084.2z"></path></g></g><g><defs><path id="g" d="M785.8,185.6h-75.4c-11,0-20.5,7.6-23.1,18.3l-0.4,1.6c-2.8,11.8-13.3,20.1-25.4,20.1H489.4
					c-12.1,0-22.6-8.3-25.4-20.1l-0.4-1.6c-2.5-10.7-12.1-18.3-23.1-18.3h-75.4c-36.3,0-65.7,29.4-65.7,65.7v1021.1
					c0,36.3,29.4,65.7,65.7,65.7h420.7c36.3,0,65.7-29.4,65.7-65.7V251.4C851.6,215.1,822.1,185.6,785.8,185.6z"></path></defs><clipPath id="h"><use overflow="visible" xlink:href="#g"></use></clipPath><line x1="795.6" x2="795.6" y1="477.5" y2="1255.6" fill="none" stroke="#002d7d" stroke-miterlimit="10" stroke-width=".948" clip-path="url(#h)"></line></g><g><defs><path id="i" d="M785.8,185.6h-75.4c-11,0-20.5,7.6-23.1,18.3l-0.4,1.6c-2.8,11.8-13.3,20.1-25.4,20.1H489.4
					c-12.1,0-22.6-8.3-25.4-20.1l-0.4-1.6c-2.5-10.7-12.1-18.3-23.1-18.3h-75.4c-36.3,0-65.7,29.4-65.7,65.7v1021.1
					c0,36.3,29.4,65.7,65.7,65.7h420.7c36.3,0,65.7-29.4,65.7-65.7V251.4C851.6,215.1,822.1,185.6,785.8,185.6z"></path></defs><clipPath id="j"><use overflow="visible" xlink:href="#i"></use></clipPath><path fill="#c2dbff" d="M795.6,753.6L795.6,753.6c-7.5,0-13.5-6.1-13.5-13.5v-60.7c0-7.5,6.1-13.5,13.5-13.5l0,0
				c7.5,0,13.5,6.1,13.5,13.5v60.7C809.2,747.5,803.1,753.6,795.6,753.6z" clip-path="url(#j)"></path></g><g><defs><path id="k" d="M785.8,185.6h-75.4c-11,0-20.5,7.6-23.1,18.3l-0.4,1.6c-2.8,11.8-13.3,20.1-25.4,20.1H489.4
					c-12.1,0-22.6-8.3-25.4-20.1l-0.4-1.6c-2.5-10.7-12.1-18.3-23.1-18.3h-75.4c-36.3,0-65.7,29.4-65.7,65.7v1021.1
					c0,36.3,29.4,65.7,65.7,65.7h420.7c36.3,0,65.7-29.4,65.7-65.7V251.4C851.6,215.1,822.1,185.6,785.8,185.6z"></path></defs><clipPath id="l"><use overflow="visible" xlink:href="#k"></use></clipPath><path fill="#ffc000" d="M299.4,1200.5v72c0,36.3,29.4,65.7,65.7,65.7h420.7c36.3,0,65.7-29.4,65.7-65.7v-72H299.4z" clip-path="url(#l)"></path></g><g><defs><path id="m" d="M785.8,185.6h-75.4c-11,0-20.5,7.6-23.1,18.3l-0.4,1.6c-2.8,11.8-13.3,20.1-25.4,20.1H489.4
					c-12.1,0-22.6-8.3-25.4-20.1l-0.4-1.6c-2.5-10.7-12.1-18.3-23.1-18.3h-75.4c-36.3,0-65.7,29.4-65.7,65.7v1021.1
					c0,36.3,29.4,65.7,65.7,65.7h420.7c36.3,0,65.7-29.4,65.7-65.7V251.4C851.6,215.1,822.1,185.6,785.8,185.6z"></path></defs><clipPath id="n"><use overflow="visible" xlink:href="#m"></use></clipPath><rect width="552.2" height="165" x="299.4" y="181.2" clip-path="url(#n)" enable-background="new" opacity=".31"></rect></g></g></g><g><path fill="#006b27" d="M35.3,1356.5c0,0-18.6-38.3,11.6-64.9c30.2-26.7,35.6-24.3,46.9-46c11.2-21.7,21.3-45.7,43-51.1
		s40.8,2.9,57.5,1.6c20.7-1.7,26.5-14.4,54.8-19.3c27.3-4.8,46.5,14.7,58.1,35.6c11.6,20.9,4.6,21.5,37.9,28.5
		c33.3,7,42.5,29.7,45.2,50.8c2.5,20.3,39.2,11.3,21.4,64.9L35.3,1356.5L35.3,1356.5z"></path><line x1="271.8" x2="229.5" y1="1191.3" y2="1356.5" fill="none" stroke="#fff" stroke-miterlimit="10" stroke-width="1.896"></line><line x1="352.6" x2="248.5" y1="1262.4" y2="1356.5" fill="none" stroke="#fff" stroke-miterlimit="10" stroke-width="1.896"></line><line x1="401.2" x2="266.8" y1="1322.9" y2="1356.5" fill="none" stroke="#fff" stroke-miterlimit="10" stroke-width="1.896"></line><line x1="137.6" x2="215.5" y1="1210.8" y2="1356.5" fill="none" stroke="#fff" stroke-miterlimit="10" stroke-width="1.896"></line><line x1="66.5" x2="196.8" y1="1300.1" y2="1356.5" fill="none" stroke="#fff" stroke-miterlimit="10" stroke-width="1.896"></line></g></svg>