<svg id="SvgjsSvg1016" width="288" height="288" xmlns="http://www.w3.org/2000/svg" version="1.1" xmlns:xlink="http://www.w3.org/1999/xlink" xmlns:svgjs="http://svgjs.com/svgjs"><rect id="SvgjsRect1021" width="288" height="288" rx="20" ry="20" transform="matrix(0.9999999403953552,0,0,0.9999999403953552,0.00000858306884765625,0.00000858306884765625)" fill="#000000"></rect><defs id="SvgjsDefs1017"></defs><g id="SvgjsG1018" transform="matrix(0.8799999952316284,0,0,0.8799999952316284,17.280000686645508,17.280000686645508)"><svg xmlns="http://www.w3.org/2000/svg" viewBox="0 0 32 32" width="288" height="288"><path d="M2 7h.142a3.981 3.981 0 0 0 7.716 0H30a1 1 0 0 0 0-2H9.858a3.981 3.981 0 0 0-7.716 0H2a1 1 0 0 0 0 2zm4-3a2 2 0 1 1-2 2 2 2 0 0 1 2-2zm24 11h-.142a3.981 3.981 0 0 0-7.716 0H2a1 1 0 0 0 0 2h20.142a3.981 3.981 0 0 0 7.716 0H30a1 1 0 0 0 0-2zm-4 3a2 2 0 1 1 2-2 2 2 0 0 1-2 2zm4 7H19.858a3.981 3.981 0 0 0-7.716 0H2a1 1 0 0 0 0 2h10.142a3.981 3.981 0 0 0 7.716 0H30a1 1 0 0 0 0-2zm-14 3a2 2 0 1 1 2-2 2 2 0 0 1-2 2z" fill="#ffffff" class="color000 svgShape"></path></svg></g></svg>